<svg xmlns="http://www.w3.org/2000/svg" width="112.397" height="34.8" viewBox="0 0 112.397 34.8">
  <path id="Fill-2" d="M24.1,34.7a10.426,10.426,0,0,1-3.5-1.2,17.023,17.023,0,0,1-4.4-3.6,21.793,21.793,0,0,1-4.4,3.6,7.72,7.72,0,0,1-3.5,1.2,2.769,2.769,0,0,1-.9.1,10.269,10.269,0,0,1-2.7-.4A7.416,7.416,0,0,1,.1,28.6a7.117,7.117,0,0,1,.4-3.8A5.031,5.031,0,0,1,1,23.5c.3-.7.6-1.2.8-1.8v-.1c2.4-5.2,5-10.5,7.8-15.8l.1-.2c.2-.5.5-1,.8-1.6a21.561,21.561,0,0,1,1.3-1.9A6.012,6.012,0,0,1,16.3,0a5.638,5.638,0,0,1,4.5,2.2,10.739,10.739,0,0,1,1.3,1.9,11.837,11.837,0,0,0,.8,1.6l.1.2c2.8,5.2,5.4,10.5,7.8,15.7a14.311,14.311,0,0,0,.8,1.8,6.949,6.949,0,0,0,.5,1.3,6.784,6.784,0,0,1,.3,3.7,7.414,7.414,0,0,1-4.6,5.8,6.394,6.394,0,0,1-2.8.6C24.7,34.8,24.4,34.7,24.1,34.7Zm78.1-9.8v.6a.472.472,0,0,1-.5.5H98.9V6.6h3.4v7.3a4.415,4.415,0,0,1,3.4-1.4,6.625,6.625,0,0,1,6.7,6.9,6.706,6.706,0,0,1-6.8,6.9A4.415,4.415,0,0,1,102.2,24.9Zm-28.9,0v.6a.473.473,0,0,1-.5.5H70V6.6h3.4v7.3a4.415,4.415,0,0,1,3.4-1.4,6.457,6.457,0,0,1,6.7,6.9,6.706,6.706,0,0,1-6.8,6.9A4.414,4.414,0,0,1,73.3,24.9ZM39.6,19.4a6.707,6.707,0,0,1,6.8-6.9,4.417,4.417,0,0,1,3.4,1.4v-.6a.536.536,0,0,1,.5-.5h2.8V26H50.3a.472.472,0,0,1-.5-.5v-.6a4.179,4.179,0,0,1-3.4,1.4A6.707,6.707,0,0,1,39.6,19.4Zm21,6.6V12.8h2.8a.472.472,0,0,1,.5.5v.6a5.155,5.155,0,0,1,3.2-1.4,4.421,4.421,0,0,1,1.5.2v3.1s-2.8-.9-4.6,1V26Zm33.1-.1V18.5c0-2.2-.7-3-2.6-3a3.515,3.515,0,0,0-2.7,1.3v9.1H85V12.8h2.7a.472.472,0,0,1,.5.5v.6a4.973,4.973,0,0,1,3.6-1.4,5.236,5.236,0,0,1,3.7,1.3c1.2.9,1.6,2.2,1.6,4.3v7.8Zm-38.5,0V12.8h3.4V25.9ZM54.6,8.7a2.263,2.263,0,0,1,2.3-2.3,2.4,2.4,0,0,1,2.3,2.3,2.3,2.3,0,0,1-4.6,0Z" transform="translate(0)" fill="#ff5a5f"/>
</svg>
