<svg xmlns="http://www.w3.org/2000/svg" width="428.24" height="477.922" viewBox="0 0 428.24 477.922">
  <g id="Illustration" transform="translate(-71.104 -0.017)">
    <g id="Group">
      <path id="Path" d="M34.136,0C52.988,0,68.273,12.872,68.273,28.743S52.988,57.486,34.136,57.486,0,44.614,0,28.743,15.285,0,34.136,0Z" transform="translate(286.304 0.017)" fill="#d2dff6"/>
      <ellipse id="Oval" cx="17.599" cy="17.617" rx="17.599" ry="17.617" transform="translate(464.145 183.461)" fill="#d2dff6"/>
    </g>
    <g id="Group-2" data-name="Group" transform="translate(311 46)">
      <path id="Path-2" data-name="Path" d="M17.9,1.191S12.941-.939,10.316.5,2.2,4.4.552,9.515s.924,12.863.924,12.863Z" transform="translate(61.506 82.178)" fill="#0601fc"/>
      <path id="Path-3" data-name="Path" d="M30.99,36.832a42.007,42.007,0,0,0,.932-10.463c-.147-6.349-4.9-19.316-7.969-21.663S7.342-1.306,2.628.47.979,6.2.979,6.2,25.024,26.741,27.26,30.422,30.99,36.832,30.99,36.832Z" transform="translate(18.049 51.345)" fill="#fc9001"/>
      <path id="Path-4" data-name="Path" d="M23.74,0S3.537,1.282.818,9.181,2.734,40.338,6.343,48.021,16.807,63.793,16.807,63.793s-5.931-23.187-2.9-37.41A107.072,107.072,0,0,1,23.74,0Z" transform="translate(46.58 11.711)" fill="#0601fc"/>
      <path id="Path-5" data-name="Path" d="M10.465,74.822s9.212-30.8,33.075-40.641,42.037.8,42.037.8S64.683,6.81,50.662,2.375s-22.654-1.3-22.654-1.3l3.747,15.132L22.12,3.562C22.111,3.579-18.6,18.477,10.465,74.822Z" transform="translate(52.923 0.682)" fill="#8294b6"/>
      <path id="Path-6" data-name="Path" d="M12.622,11.317A33.274,33.274,0,0,1,9.6,3.894C12.916,1.486,17.362-.1,23.354,0,36.442.23,49.5,17.579,48.9,36.453,37.055,24.7,28.681,19.624,17.086,19.2,10.334,18.948,5.43,17.813,0,24.725,0,24.725.009,16.072,4.74,9A35.625,35.625,0,0,0,12.622,11.317Z" transform="translate(0.138 51.723)" fill="#8294b6"/>
      <path id="Path-7" data-name="Path" d="M11.369,3.11A18.876,18.876,0,0,1,21.574,0a98.17,98.17,0,0,0,.691,10.013c1.036-3.421.328-6.843.7-10a29.168,29.168,0,0,1,10.9,2.633c-.276,3.828-.881,7.51.708,11.6A31.392,31.392,0,0,1,36.5,3.958,35.912,35.912,0,0,1,50.548,18.224c-15.67-2.737-25.175-1.984-35.147,4.547C9.6,26.574,4.92,28.54,3.7,37.488,3.694,37.488-8.48,16.639,11.369,3.11Z" transform="translate(60.488 82.087)" fill="#8294b6"/>
      <path id="Path-8" data-name="Path" d="M0,91.866H3.393V0H1.606Z" transform="translate(53.511 72.646)" fill="#8294b6"/>
      <path id="Path-9" data-name="Path" d="M5.143,67.89h61.8L72.07,4.53A4.024,4.024,0,0,0,68.3,0H3.753A3.994,3.994,0,0,0,.014,4.487Z" transform="translate(19.161 164.503)" fill="#8294b6"/>
    </g>
    <g id="Group-3" data-name="Group" transform="translate(71 278)">
      <path id="Path-10" data-name="Path" d="M20.373,0l2.349.285L2.349,163.249,0,162.964Z" transform="translate(0.104 5.743)" fill="#fff"/>
      <path id="Path-11" data-name="Path" d="M2.358,0,0,.285,20.373,163.249l2.358-.285Z" transform="translate(319.217 5.743)" fill="#fff"/>
      <rect id="Rectangle" width="331.541" height="10.002" transform="translate(5.303 0.259)" fill="#fff"/>
    </g>
    <path id="Shape" d="M22.314,27H0V0H22.322V3.65h8.1a3.57,3.57,0,0,1,2.866,1.493,3.745,3.745,0,0,1,.545,3.318L29.613,22.311a3,3,0,0,1-1.231,2.044,4.371,4.371,0,0,1-2.614.82l-3.454-.157V27Zm0-19.831V21.481l3.533.166a.853.853,0,0,0,.329-.061L30.488,7.413a.214.214,0,0,0-.035-.2l-.077-.043Z" transform="translate(358 252)" fill="#fff"/>
    <g id="Group-4" data-name="Group" transform="translate(164 135)">
      <rect id="Rectangle-2" data-name="Rectangle" width="17.993" height="36.103" transform="translate(69.641 101.073)" fill="#8294b6"/>
      <rect id="Rectangle-3" data-name="Rectangle" width="157.197" height="13.602" transform="translate(0.043 128.795)" fill="#8294b6"/>
      <rect id="Rectangle-4" data-name="Rectangle" width="34.501" height="6.211" transform="translate(112.413 122.584)" fill="#8294b6"/>
      <rect id="Rectangle-5" data-name="Rectangle" width="97.433" height="6.211" transform="translate(5.508 122.584)" fill="#b2b2b2"/>
      <path id="Path-12" data-name="Path" d="M152.5,104.76H4.688A4.682,4.682,0,0,1,0,100.083V4.678A4.682,4.682,0,0,1,4.688,0H152.5a4.682,4.682,0,0,1,4.688,4.678v95.4A4.684,4.684,0,0,1,152.5,104.76Z" transform="translate(0.043 0.069)" fill="#8294b6"/>
      <path id="Path-13" data-name="Path" d="M141.259,0H2.288A2.284,2.284,0,0,0,0,2.283V89.151a2.289,2.289,0,0,0,2.288,2.283H141.259a2.284,2.284,0,0,0,2.288-2.283V2.283A2.278,2.278,0,0,0,141.259,0Z" transform="translate(6.864 6.581)" fill="#fff"/>
      <path id="Path-14" data-name="Path" d="M118.094,29.358H4.006a4,4,0,0,1-4.006-4V4A4,4,0,0,1,4.006,0H118.094A4,4,0,0,1,122.1,4V25.352A4.006,4.006,0,0,1,118.094,29.358Z" transform="translate(19.02 14.662)" fill="#e1eaf9"/>
      <path id="Path-15" data-name="Path" d="M119.4,7.236H2.694A2.694,2.694,0,0,1,0,4.548V2.688A2.694,2.694,0,0,1,2.694,0H119.4a2.694,2.694,0,0,1,2.694,2.688V4.548A2.694,2.694,0,0,1,119.4,7.236Z" transform="translate(19.029 79.322)" fill="#e1eaf9"/>
      <path id="Path-16" data-name="Path" d="M53.055,20.657H4.006A4,4,0,0,1,0,16.66V4A4,4,0,0,1,4.006,0H53.055a4,4,0,0,1,4.006,4V16.66A4,4,0,0,1,53.055,20.657Z" transform="translate(19.029 51.334)" fill="#e1eaf9"/>
      <path id="Path-17" data-name="Path" d="M53.055,20.657H4.006A4,4,0,0,1,0,16.66V4A4,4,0,0,1,4.006,0H53.055a4,4,0,0,1,4.006,4V16.66A4,4,0,0,1,53.055,20.657Z" transform="translate(84.059 51.334)" fill="#e1eaf9"/>
    </g>
    <g id="Group-5" data-name="Group" transform="translate(110 109)">
      <path id="Path-18" data-name="Path" d="M4.389,2.019S.288,5.553.029,9.139s1.217,5.3,4.956,7.276,20.084,1.6,27.561-.216A10.27,10.27,0,0,0,40.489,5.951c-.207-1.1-5.051-3.69-9.247-5.073S21.451,0,16.417.679,4.994,1.448,4.389,2.019Z" transform="translate(151.876 310.18)" fill="#d58214"/>
      <path id="Path-19" data-name="Path" d="M2.56,4.071S-.539,7.8.082,10.959s2.461,4.39,6.545,5.5,19.738-1.91,26.5-4.7,4.153-8.175,3.687-9.091S29.819.995,25.442.494,18.5-.466,13.82.952,3.009,3.475,2.56,4.071Z" transform="translate(87.617 301.983)" fill="#d58214"/>
      <path id="Path-20" data-name="Path" d="M.724,4.01S6.432,0,11.552,0,23.269,1.78,26.014,2,36.945,3.56,37.3,7.276s1.166,7.121-.389,7.121-5.638-3.707-8.229-3.336-11.492,2.523-16.094,2S6.138,12.029,3.91,10.4-1.426,4.822.724,4.01Z" transform="translate(157.699 141.629)" fill="#fff"/>
      <path id="Path-21" data-name="Path" d="M51.31,10.247S49.7,5.459,40.508,1.8,12.231.8,8.475,3.377.963,11.586.963,11.586-2.4,30.779,3.432,39.784,17.964,60.861,21.72,60.861,36.053,64.223,41.2,54.924,53.823,14.654,51.31,10.247Z" transform="translate(31.865 0.227)" fill="#0601fc"/>
      <path id="Path-22" data-name="Path" d="M.97,1.614s2.271-2.67,4.7-1.141,6.079,3.863,5.535,8.46S5.072,20.461,1.713,16.9.97,1.614.97,1.614Z" transform="translate(30.908 8.48)" fill="#fc9001"/>
      <path id="Path-23" data-name="Path" d="M0,66.881s16.017,2.376,25.808-9.35,13.5-21.682,12.157-34S35.591,6.32,35.591,6.32s.294-3.413-5.189-4.3S17.355-1.414,13.047,1.04,2.072,15.221,3.108,25.315s9.636,23.307,7.564,30.427C8.6,62.88,3.851,66.294,0,66.881Z" transform="translate(0.147 7.428)" fill="#0601fc"/>
      <path id="Path-24" data-name="Path" d="M22.406,67.656,23.442,55.41s8.6-.147,12.831-2.3,5.267-30.721,4.153-36.217S33.864,1.581,32.232,0a46.71,46.71,0,0,0-2.444,4.649A37.338,37.338,0,0,1,27.3,10.958c-1.71,3.413-4.9,14.795-4.9,14.795s-6.9-4.1-8.306-2.472a8.612,8.612,0,0,0-.967,8.538c1.485,3.12,4.3,5.79,6.528,6.6s2.3,0,2.3,0-2.6,9.8-7.27,11.5S2.6,51.556,2.6,51.556L0,64.985" transform="translate(49.812 8.59)" fill="#fff"/>
      <path id="Path-25" data-name="Path" d="M5.336,59.472s3.756,4.355,8.6,3.465,6.225-9,6.821-16.03S25.506,0,25.506,0L1.381.6,0,5.047S4.956,40.08,5.345,47,4.153,57.484,5.336,59.472Z" transform="translate(84.453 252.026)" fill="#fc9001"/>
      <path id="Path-26" data-name="Path" d="M1.775,8.485S21.2,3.386,30.692,2.2,60.109-4.573,64.064,8.485s.2,107.459-2.573,112.61S54.177,130,49.23,129.607s-3.229-2.774-4.283-6.136S43.5,76.365,40.336,65.287s-9.688-32.259-9.688-32.259S-8.707,29.069,1.775,8.485Z" transform="translate(108.744 192.935)" fill="#fc9001"/>
      <path id="Path-27" data-name="Path" d="M115.079,79.538V76.272s-25.42-6.87-52.2-7.561V0H49.233V60.63a5.557,5.557,0,0,0-4.654,8.6A229.834,229.834,0,0,0,3.929,76.263v2.506a6.745,6.745,0,1,0,7.028.864H51.279l4.3,14.5a8.456,8.456,0,1,0,6.156.6c.009-4.442-.052-10.759-.449-15.1h45.494a6.747,6.747,0,1,0,8.3-.1Z" transform="translate(29.253 258.214)" fill="#7081a2"/>
      <path id="Path-28" data-name="Path" d="M0,65.111S6.726,23.942,10.879,15.24,22.941-.194,26.7,0s33.216,1.184,45.676,7.32S85.817,20.58,93.139,41.562s4.55,62.54,10.085,72.236,29.262,49.275,29.262,49.275-12.658,11.874-21.353,11.874-37.568.994-40.538-9.1S4.947,100.542,0,65.111Z" transform="translate(13.625 71.195)" fill="#0601fc"/>
      <path id="Path-29" data-name="Path" d="M147.994,103.467s1.779,5.937-.743,9.644-25.955,20.317-34.7,20.464-82.311-13.343-85.722-14.38S.6,52.913,0,20.559C-.033,11.018.735,1.02.735,1.02S13.289,9.091,23.279,9.756c16.509,1.115,35,.337,43.595-2.93S76.959,0,76.959,0s12.157,106.872,27.587,110.138,24.617-.294,28.476-4.753,7.71-6.931,8.9-7.026S147.994,103.467,147.994,103.467Z" transform="translate(5.085 131.449)" fill="#7081a2"/>
      <path id="Path-30" data-name="Path" d="M82.236,62.851s6.079,3.12,4.447,5.937-33.372,17.37-43.75,18.848-14.678,1.633-26.844-15.14S1.5,26.78.27,16.54,2.066-1.841,8.671.363s7.495,2.3,9.679,6.645,24.133,56,24.133,56S74.223,60.621,82.236,62.851Z" transform="translate(79.598 82.416)" fill="#0601fc"/>
    </g>
  </g>
</svg>
