<svg id="Group_27" data-name="Group 27" xmlns="http://www.w3.org/2000/svg" width="337.765" height="385.987" viewBox="0 0 337.765 385.987">
  <path id="Path_262" data-name="Path 262" d="M868.335,463.889a36.77,36.77,0,0,1-2.8-11.218c-.961-9.271-.6-18.668-.524-27.973.078-9.376.21-18.754.585-28.124.337-8.434,2.275-17.76-3.071-25.069-5.13-7.013-13.611-13.884-22.476-14.813-7.944-.832-15.15,4.794-16.184,12.249-3.4.692-6.8,1.369-10.212,1.991.024-.083.053-.161.073-.247a32.889,32.889,0,0,1,8.791-15.711,2.849,2.849,0,0,1,.28-1.239,58.157,58.157,0,0,1,4.979-9.221q.093-.129.192-.243c-1.473-2.07-4.754-3.109-6.968-1.548a43.31,43.31,0,0,0-17.41,25.168,4.952,4.952,0,0,0,.98,4.52c-2.42.336-4.848.623-7.284.839-5.149.455-10.336.354-15.476.882s-9.989,2.2-15.078,2.947c-4.823.7-9.583-.4-14.277-1.386a133.857,133.857,0,0,0-15.507-2.346c-10.419-.935-20.9-.607-31.336-.279a5.589,5.589,0,0,0-3.749,1.622,31.8,31.8,0,0,1-2.345,16.15,44.622,44.622,0,0,1-4.18,7.438c7.164.064,14.329-.058,21.494-.112,4.368-1.067,8.752-2.075,13.156-2.967,11.821-.637,23.663-2.6,35.483-3.771a103.539,103.539,0,0,1,21.709,2.414c2.395.543,4.838,1.134,7.221,1.877a25.153,25.153,0,0,1,2.732,6.234q.631,1.9,1.148,3.826-.829,4.9-1.612,9.807a119.646,119.646,0,0,1-1.582,12.421,35.358,35.358,0,0,1-.494,5.206c-.132,2.392-.384,4.768-.739,7.128.934,9.2,0,18.358.6,27.612a40.542,40.542,0,0,0,5.816,18.678,5.158,5.158,0,0,1,.911.87,26.262,26.262,0,0,0,2.254,2.485c.4.387.827.751,1.251,1.116l.088.077.078.054a33.934,33.934,0,0,0,5.492,3.135c-.089-.062,1.691.648,2.128.8.821.281,1.65.535,2.484.774a38.264,38.264,0,0,0,6.88-.055c8.068-1.608,16-5.08,23.529-8.283,7.338-3.12,14.419-6.976,20.245-12.5a12.318,12.318,0,0,0,3.487-4.538C869.957,468.141,869.343,466.146,868.335,463.889Z" transform="translate(-630.937 -210.098)" fill="#ff8e01"/>
  <path id="Path_263" data-name="Path 263" d="M721.717,471.772c.154-1.66-.226-2.7-1.715-5.63q-6.411-12.684-13.623-24.939a3.651,3.651,0,0,0-1.973-1.672,3.42,3.42,0,0,0-.516-.384c-1.96-1.175-4.058-.281-5.3,1.389-4.673,6.289-11.194,10.9-17.016,16.033-5.773,5.092-11.983,10.42-13.733,15.054a6.664,6.664,0,0,0,.062,5.107c.495,1.015.556,1.265.972,1.985,4.679,8.089,11.911,14.354,17.108,22.12a3.992,3.992,0,0,0,1.328,1.263c.9,1.848,2.991,2.995,5.135,1.459,6.281-4.5,11.16-9.842,16.074-15.741,2.207-2.648,4.8-4.708,7.236-7.118a27.68,27.68,0,0,0,3.628-4.541C720.77,474.3,721.6,473.011,721.717,471.772Z" transform="translate(-630.937 -210.098)" fill="#ff8e01"/>
  <path id="Path_264" data-name="Path 264" d="M864.727,518.6a13.241,13.241,0,0,1,6.4-15.624c11.8-6.293,30.471-16.963,32.474-22.451,2.95-8.088,42.775,41.524,44.666,62.786s-43.345,40.658-56.134,38.844C885.017,581.151,871.041,538.886,864.727,518.6Z" transform="translate(-630.937 -210.098)" fill="#231f20"/>
  <path id="Path_265" data-name="Path 265" d="M831.815,254.662a.3.3,0,0,1,.228-.08c.913-.121,2.53.17,2.09,2.45a.936.936,0,0,1-.115.277q-2.163,1.8-4.218,3.7c-1.472,1.37-2.895,2.786-4.239,4.257a32.23,32.23,0,0,0-3.51,4.646,39.585,39.585,0,0,0-2.664,5.229,49.242,49.242,0,0,0-1.884,5.609,56.935,56.935,0,0,0-1.184,5.832c-.271,1.97-.465,3.953-.544,5.944s-.059,3.985.066,5.973.353,3.967.679,5.926a41.155,41.155,0,0,0,3.493,11.224,21.7,21.7,0,0,0,3.131,4.731,11.276,11.276,0,0,0,4.539,2.647,36.016,36.016,0,0,0,5.678,1.464c1.953.355,3.939.607,5.934.78l1.277.1.819.048c.546.037,1.093.053,1.64.077,0,0,1.274.139,3.005.281s3.917.264,5.718.285c1.527-.012,2.506-.08,3.087-.105s.808.029.734.255a1.267,1.267,0,0,1-.364.423,4.555,4.555,0,0,1-.8.488,12.077,12.077,0,0,1-2.527.841,27.357,27.357,0,0,1-4.55.68c-2.408.229-4.876.26-4.876.26-.563-.019-1.125-.052-1.687-.086l-.842-.057-.852-.064-1.54-.147a62.107,62.107,0,0,1-6.149-.95,33.864,33.864,0,0,1-6.1-1.822,16.875,16.875,0,0,1-2.978-1.6,10.452,10.452,0,0,1-1.4-1.18,7.158,7.158,0,0,1-.575-.64l-.534-.632a26.751,26.751,0,0,1-3.318-5.525,46.036,46.036,0,0,1-3.469-12.042,56.269,56.269,0,0,1-.629-6.192,58.87,58.87,0,0,1,0-6.216,57.386,57.386,0,0,1,1.922-12.3,43.342,43.342,0,0,1,4.947-11.537,34.616,34.616,0,0,1,3.847-5.052c1.4-1.527,2.862-2.981,4.366-4.38Q829.585,256.512,831.815,254.662Z" transform="translate(-630.937 -210.098)" fill="#202020"/>
  <path id="Path_266" data-name="Path 266" d="M879.906,314.84a.314.314,0,0,1,.246-.061,2.044,2.044,0,0,1,1.506.495,2.138,2.138,0,0,1,.262,2.2.847.847,0,0,1-.134.254c-.362.249-.75.46-1.093.737l-1.029.834-.516.416-.476.466-.952.933a34.833,34.833,0,0,0-6.114,9.373,64.37,64.37,0,0,0-3.76,10.853c-.49,1.867-.914,3.758-1.3,5.663l-.289,1.434-.311,1.479c-.211.966-.418,1.906-.587,2.833a21.825,21.825,0,0,0-.351,2.714,7.825,7.825,0,0,0,.171,2.372,9.832,9.832,0,0,0,1.035,2.27c.458.773.993,1.547,1.555,2.344l.86,1.226.832,1.217,1.678,2.449a44.126,44.126,0,0,1,3.135,5.276,20.832,20.832,0,0,1,1.962,6.105,19.64,19.64,0,0,1-.312,6.42c-.185,1.007-.4,1.976-.594,2.926l-.612,2.889-1.225,5.781c-.817,3.858-1.639,7.686-2.33,11.523a114.093,114.093,0,0,0-1.552,11.527c-.3,3.868-.417,7.754-.375,11.643a187.446,187.446,0,0,0,1.845,23.312l3.444,23.321.4,2.711c.085.525.185,1.043.293,1.557l.128.81c.091.5.22,1.208.438,1.99a12.048,12.048,0,0,0,2.338,4.7,13.348,13.348,0,0,0,2.279,1.912c.476.355.588.567.384.681a1.229,1.229,0,0,1-.532.076,3.44,3.44,0,0,1-.929-.123,7.168,7.168,0,0,1-2.536-1.189c.036.045-.063-.023-.264-.179l-.374-.3-.46-.448a12.694,12.694,0,0,1-2.087-2.868,19.622,19.622,0,0,1-1.381-3.264c-.294-.915-.448-1.535-.448-1.535-.12-.565-.216-1.157-.3-1.7l-.747-5.042-1.7-11.484-.866-5.757c-.283-1.925-.553-3.852-.794-5.786a181.952,181.952,0,0,1-1.578-23.368q.018-5.879.551-11.753c.385-3.923,1.007-7.8,1.73-11.631s1.548-7.627,2.345-11.4l1.2-5.672.6-2.845c.2-.94.383-1.858.515-2.755a13.46,13.46,0,0,0-.071-5.15,19.408,19.408,0,0,0-1.9-4.962,50.346,50.346,0,0,0-2.968-4.759l-1.645-2.395c-.534-.794-1.078-1.543-1.652-2.37a26.647,26.647,0,0,1-1.643-2.628,10.361,10.361,0,0,1-1.171-3.245,13.41,13.41,0,0,1-.054-3.332c.1-1.05.27-2.056.461-3.038s.411-1.938.61-2.868l.575-2.833c.409-1.917.833-3.836,1.348-5.74a65.966,65.966,0,0,1,3.949-11.222,37.87,37.87,0,0,1,6.656-10.119l1.084-1.065.545-.531.593-.482,1.189-.961C879.034,315.381,879.484,315.127,879.906,314.84Z" transform="translate(-630.937 -210.098)" fill="#202020"/>
  <path id="Path_267" data-name="Path 267" d="M898.916,284.275c.073.033.1.045.162.163a2.347,2.347,0,0,1,.4,1.516c-.084.568-.5,1.144-1.654,1.448a1,1,0,0,1-.313.015c-.93-.418-1.838-.861-2.73-1.313l-1.328-.683-2.9-1.518-.84-.435c-.266-.137-.523-.276-.823-.4l-1.739-.769-3.492-1.536-7.057-3.044c-4.714-2.019-9.441-4.024-14.157-6.079a296.437,296.437,0,0,1-27.819-13.57q-6.771-3.8-13.168-8.266l-1.6-1.113a6.153,6.153,0,0,0-.7-.447c-.3-.181-.593-.364-.881-.561a18.155,18.155,0,0,1-3.24-2.738,11.181,11.181,0,0,1-2.41-3.859,1.7,1.7,0,0,1-.134-.453l-.028-.5c-.005-.128-.01-.254-.008-.384s.034-.28.056-.42a3.577,3.577,0,0,1,.081-.418c.047-.142.1-.284.153-.424a3.4,3.4,0,0,1,.439-.784,4.471,4.471,0,0,1,.584-.633,6.26,6.26,0,0,1,.637-.453,5.993,5.993,0,0,1,1.254-.54,9.915,9.915,0,0,1,2.3-.382c.367-.023.726-.029,1.082-.024l.529.012h.447c.6-.007,1.174.009,1.8-.011l1.932-.1c2.577-.121,5.15-.211,7.719-.292,5.136-.16,10.251-.292,15.344-.569l3.833-.235c.655-.046,1.264-.066,1.819-.136a7.477,7.477,0,0,0,1.535-.32,4.51,4.51,0,0,0,1.253-.64,5.9,5.9,0,0,0,.57-.468l.757-.653a11.247,11.247,0,0,0,2.144-2.563,15.316,15.316,0,0,0,1.422-3.127,29.739,29.739,0,0,0,.857-3.513c.219-1.215.4-2.464.57-3.728l.267-1.917.143-.967.17-1.091.225-.646a4.78,4.78,0,0,1,.229-.575,7.081,7.081,0,0,1,.635-1.093l.382-.515c.146-.157.3-.31.45-.462a7.1,7.1,0,0,1,1-.812,7.41,7.41,0,0,1,4.791-1.106,8.149,8.149,0,0,1,2.364.61,7.885,7.885,0,0,1,2.065,1.333c.344.29.522.5.764.74l.689.7.689.7.663.728a101.484,101.484,0,0,1,9.543,12.391h0c2.2,3.281,4.272,6.617,6.341,9.932l3.116,4.946c.53.817,1.041,1.631,1.589,2.452s1.088,1.63,1.6,2.5c4.112,6.757,7.881,13.648,11.33,20.735q2.586,5.309,4.927,10.728l1.148,2.7.442,1.059.22.529.056.138.061.215.11.434s.028.131.061.361c.005.208.011.512.005.887a8.76,8.76,0,0,1-.623,2.579,14.048,14.048,0,0,1-3.623,5.161,5.848,5.848,0,0,1-2.984,1.633c-.669.027-.815-.139-.7-.332a1.353,1.353,0,0,1,.328-.354c.156-.114.342-.334.559-.515a14.036,14.036,0,0,0,1.436-1.777c-.036.03.013-.057.125-.23s.291-.431.485-.771a14.25,14.25,0,0,0,1.236-2.636,7.528,7.528,0,0,0,.477-2.657,2.92,2.92,0,0,0-.049-.395.5.5,0,0,0-.064-.232c-.044-.1-.04-.151-.055-.17l-.806-1.926-.2-.483-.856-2-1.113-2.534q-2.252-5.055-4.722-10.006t-5.158-9.788q-1.341-2.42-2.74-4.806l-1.409-2.381-1.419-2.336c-4.133-6.179-7.9-12.648-11.981-18.746h0a98.122,98.122,0,0,0-9.22-11.979l-.632-.695-.658-.671-.657-.671a8.4,8.4,0,0,0-.614-.6,4.46,4.46,0,0,0-1.15-.747,4.753,4.753,0,0,0-1.345-.343,3.983,3.983,0,0,0-2.562.566,3.7,3.7,0,0,0-.487.4l-.225.223-.186.261a3.635,3.635,0,0,0-.33.564,1.992,1.992,0,0,0-.123.319c-.036.1-.087.242-.1.259l-.265,1.746-.263,1.9c-.177,1.277-.359,2.57-.6,3.88a32.905,32.905,0,0,1-.97,3.96,18.731,18.731,0,0,1-1.762,3.862,14.682,14.682,0,0,1-2.776,3.32l-.7.6a9.332,9.332,0,0,1-.917.753,7.957,7.957,0,0,1-2.163,1.105,15.872,15.872,0,0,1-4.242.628l-3.851.237c-5.155.281-10.3.413-15.422.573-2.561.081-5.116.17-7.665.29l-1.911.1c-.657.021-1.368.01-2.05.014h-.516l-.432-.01c-.285,0-.568,0-.841.019a6.559,6.559,0,0,0-1.49.236,1.389,1.389,0,0,0-.72.386c0,.022-.036.024-.026.051a.037.037,0,0,1-.016.025c-.006.012,0,.038,0,.054a.169.169,0,0,1-.016.056l.011.1c-.007-.015-.012-.028-.006-.016l.049.134a1.4,1.4,0,0,0,.071.171c.054.113.1.229.158.342.115.226.245.45.387.673a9.953,9.953,0,0,0,1.006,1.281,14.694,14.694,0,0,0,2.627,2.213c.241.165.492.32.742.473l.464.277.457.318,1.561,1.087q6.235,4.359,12.9,8.1a292.909,292.909,0,0,0,27.5,13.409c4.693,2.045,9.414,4.047,14.135,6.068l7.078,3.054,3.554,1.564,1.78.788c.293.121.6.285.907.441l.868.45,2.894,1.516,1.294.665C897.193,283.469,898.053,283.887,898.916,284.275Z" transform="translate(-630.937 -210.098)" fill="#202020"/>
  <path id="Path_268" data-name="Path 268" d="M818.8,268.589a.294.294,0,0,1,.235-.064c.921-.06,2.509.342,1.918,2.586a.924.924,0,0,1-.134.267q-2.271,1.646-4.459,3.414c-2.488,2.005-4.9,4.117-7.253,6.3l-1.149,1.077c-.372.357-.792.742-1.088,1.048l-.139.125c-.087.078-.206.191-.323.318a2.292,2.292,0,0,0-.29.378.754.754,0,0,0-.076.158.241.241,0,0,0-.034.14,1.219,1.219,0,0,0,.294.642,4.144,4.144,0,0,0,.834.793,6.475,6.475,0,0,0,1.095.653l.283.125.358.136c.237.093.468.19.691.292a14.147,14.147,0,0,1,1.781.932c.441.265.776.462,1.028.624.5.317.628.514.43.644a2.626,2.626,0,0,1-1.449.075c-.74-.1-1.571-.342-2.45-.486.042.023-.056.008-.264-.024l-.39-.062-.259-.041-.358-.072a7.46,7.46,0,0,1-3.426-1.779,3.841,3.841,0,0,1-1.218-2.453,4.067,4.067,0,0,1,.623-2.386,7.826,7.826,0,0,1,.837-1.124l.312-.346,2.012-1.9c2.4-2.231,4.866-4.4,7.427-6.467Q816.448,270.3,818.8,268.589Z" transform="translate(-630.937 -210.098)" fill="#202020"/>
  <path id="Path_269" data-name="Path 269" d="M829.133,267.318c-.026.005-.035.007-.086-.066a4.566,4.566,0,0,1-.638-1.119,2.882,2.882,0,0,1-.085-2.018.48.48,0,0,1,.1-.167c.027-.012.3-.06.758-.126a9.266,9.266,0,0,1,1.866-.036,9.9,9.9,0,0,1,5.1,1.9,9.146,9.146,0,0,1,2.068,2.119,8.994,8.994,0,0,1,1.158,2.3,9.752,9.752,0,0,1,.415,1.75c.063.429.073.676.073.676a7.426,7.426,0,0,1-.244,1.492,6.745,6.745,0,0,1-1.216,2.5,2.791,2.791,0,0,1-1.1.989c-.28.117-.459.065-.563-.081a3.262,3.262,0,0,1-.086-1.647c-.055.055.091-.761.043-1.567a7.383,7.383,0,0,0-.138-1.093l-.119-.482-.058-.435a6.383,6.383,0,0,0-.293-1.109,5.59,5.59,0,0,0-2.032-2.691,6.479,6.479,0,0,0-3.29-1.188,5.808,5.808,0,0,0-1.168.025C829.316,267.284,829.148,267.307,829.133,267.318Z" transform="translate(-630.937 -210.098)" fill="#202020"/>
  <path id="Path_270" data-name="Path 270" d="M827.186,272.374c.053,0,.074,0,.141.089a1.381,1.381,0,0,1,.232,1.293c-.071.272-.187.558-.3.874-.027.079-.053.16-.076.243l0,.01,0,.028v.021a.5.5,0,0,0,.074.252.465.465,0,0,0-.181-.114c-.108-.04-.143,0-.05-.039a.465.465,0,0,0,.131-.093.46.46,0,0,0,.046-.051l.007-.01h0c-.079.113.69-.987.365-.521h0l0,0,.006.005,0,0s.006,0,.006,0a.012.012,0,0,0-.008-.011.34.34,0,0,0-.174-.16.428.428,0,0,0-.314-.026.631.631,0,0,0-.362.03.652.652,0,0,0-.239.138.442.442,0,0,0-.109.259,1.144,1.144,0,0,1-.1.528.546.546,0,0,1-.647.144,1.4,1.4,0,0,1-.8-.892c-.012.046-.106-.187-.115-.553a2.235,2.235,0,0,1,.071-.631,2.282,2.282,0,0,1,.226-.612,2.422,2.422,0,0,1,.879-.927,2.009,2.009,0,0,1,.55-.247,2.514,2.514,0,0,1,.972.035,2.748,2.748,0,0,1,1.094.5,3.254,3.254,0,0,1,1.039,1.263l.185.435c.04.152.068.309.1.463a1.51,1.51,0,0,1,.048.457c0,.15.009.3,0,.45a3.212,3.212,0,0,1-.7,1.714,2.643,2.643,0,0,1-1.055.777,2.709,2.709,0,0,1-2.369-.211l-.129-.079-.134-.1a2.829,2.829,0,0,1-.309-.273,2.642,2.642,0,0,1-.506-.734,2.538,2.538,0,0,1-.088-1.893,2.746,2.746,0,0,1,.984-1.31A2.7,2.7,0,0,1,827.186,272.374Z" transform="translate(-630.937 -210.098)" fill="#202020"/>
  <path id="Path_271" data-name="Path 271" d="M813.665,300.24c-.024-.039-.034-.053,0-.149a2.179,2.179,0,0,1,.773-1.081,4.125,4.125,0,0,1,1.894-.723.457.457,0,0,1,.169.005c0,.02.128.179.331.447a7.2,7.2,0,0,0,.967.984,7.907,7.907,0,0,0,3.724,1.76,7.063,7.063,0,0,0,3.983-.435,7.775,7.775,0,0,0,1.2-.629c.279-.175.427-.291.427-.291a10.1,10.1,0,0,0,1.045-.574,13.714,13.714,0,0,0,1.908-1.456,10.868,10.868,0,0,1,1.056-.989c.261-.178.451-.2.585-.071a2.374,2.374,0,0,1-.011,2.045,6.6,6.6,0,0,1-1.062,2.064,11.384,11.384,0,0,1-1.1,1.334l-.582.554-.61.4a11.181,11.181,0,0,1-1.726.856,10.347,10.347,0,0,1-2.67.677,10.653,10.653,0,0,1-3.158-.119,11.374,11.374,0,0,1-5.262-2.525c-.318-.255-.574-.534-.816-.764-.223-.253-.425-.468-.578-.661C813.852,300.507,813.677,300.269,813.665,300.24Z" transform="translate(-630.937 -210.098)" fill="#202020"/>
  <path id="Path_272" data-name="Path 272" d="M838.379,327.394c.025-.076.034-.1.145-.179a2.35,2.35,0,0,1,1.472-.548c.576.027,1.184.377,1.605,1.5a.994.994,0,0,1,.047.311A33.512,33.512,0,0,1,839.3,334a28.671,28.671,0,0,1-4.441,6.1c-.835.91-1.734,1.749-2.5,2.572l-1.143,1.258c-.37.433-.725.88-1.09,1.319a43.523,43.523,0,0,0-3.825,5.682c-1.14,2-2.154,4.108-3.214,6.252s-2.182,4.316-3.483,6.4c-.334.517-.653,1.043-1,1.551l-1.064,1.514-1.13,1.463-.284.366-.009.011c2.228,2.092-3.046-2.835-2.5-2.333l.019-.019.038-.037.077-.074.153-.149.614-.593c3.256-3.217,6.1-7.05,9.552-10.551h0a30.72,30.72,0,0,1,7.269-5.622,20.316,20.316,0,0,1,2.157-.975c.372-.139.738-.283,1.116-.415l1.2-.306c.2-.046.4-.11.6-.139l.609-.076c.406-.044.814-.11,1.218-.131a19.165,19.165,0,0,1,2.4.051c.393.038.791.065,1.181.115l1.153.2.576.1.561.138,1.121.278c.729.218,1.463.433,2.177.68l.624.225c.837.288,1.64.627,2.452.953,0,0,1.211.6,2.77,1.493s3.47,2.078,5,3.112c2.629,1.68,3.346,2.366,2.911,2.549s-2.019-.223-3.851-.891c.165.127-1.99-.758-4.162-1.627-1.088-.43-2.185-.857-3.012-1.151s-1.381-.485-1.381-.485l-1.093-.44-1.1-.4-.288-.1c-.312-.122-.629-.2-.943-.3l-.944-.29-.946-.233c-.631-.178-1.262-.258-1.892-.376a8.915,8.915,0,0,0-.941-.107c-.312-.023-.627-.068-.937-.076l-.923.008c-.154,0-.309,0-.461.006l-.449.057-.9.106-.863.221-.432.106c-.146.049-.293.11-.44.165l-.881.332q-.864.381-1.705.827a28.129,28.129,0,0,0-6.117,4.831h0c-3.231,3.268-6.076,7.1-9.58,10.582l-.667.645-.167.162-.083.08-.042.041-.021.02c.539.517-4.741-4.453-2.5-2.355l.009-.01.262-.339,1.048-1.357.985-1.4c.324-.471.62-.963.932-1.442,1.211-1.946,2.276-4,3.32-6.115s2.092-4.3,3.3-6.425a46.776,46.776,0,0,1,4.128-6.131c.394-.476.778-.958,1.18-1.428l1.254-1.38c.855-.915,1.7-1.7,2.468-2.54a25.179,25.179,0,0,0,3.93-5.388A30.151,30.151,0,0,0,838.379,327.394Z" transform="translate(-630.937 -210.098)" fill="#202020"/>
  <path id="Path_273" data-name="Path 273" d="M870.22,473.08a.274.274,0,0,1,.214-.091c.855-.155,2.581-.1,2.323,2.23a.959.959,0,0,1-.1.293l-1.055,1.034-.529.516-.554.48-2.223,1.914a99.391,99.391,0,0,1-9.388,6.623c-.813.5-1.638.976-2.457,1.466l-1.23.729-1.253.687-2.507,1.371-2.546,1.291c-.845.44-1.7.847-2.568,1.246s-1.72.815-2.588,1.2c-1.751.747-3.483,1.536-5.264,2.213a110.307,110.307,0,0,1-10.819,3.72c-.925.249-1.836.538-2.772.754l-2.806.66c-1.9.354-3.787.741-5.733.936a30.92,30.92,0,0,1-5.957.127,22.112,22.112,0,0,1-3.008-.465c-.945-.212-1.891-.44-2.831-.712a31.921,31.921,0,0,1-5.562-2.09,18.006,18.006,0,0,1-5.061-3.567l-.547-.591c-.18-.2-.336-.426-.5-.639a11.535,11.535,0,0,1-.9-1.367c-.269-.468-.477-.974-.7-1.438l-.561-1.321-.281-.661-.255-.686-.507-1.375c-.285-.938-.618-1.86-.842-2.818a37.472,37.472,0,0,1-1.073-5.786,46.242,46.242,0,0,1-.268-5.83c.037-3.859.4-7.637.63-11.338.348-7.437.5-14.979.769-22.5s.7-15.083,1.4-22.6l.248-2.69.168-1.676s.213-1.3.553-3.046.792-3.941,1.272-5.735c1.448-6.109,1.915-3.537,1.877.337.057-.2-.046,2.113-.141,4.47l-.194,4.76-.162,1.637-.435,4.877c-.621,7.334-1,14.671-1.227,22.046l-.342,11.079-.193,5.553-.106,2.786-.183,2.8c-.253,3.7-.563,7.343-.486,10.915a38.5,38.5,0,0,0,.438,5.3c.116.875.31,1.735.485,2.6.1.429.218.855.326,1.282s.228.852.366,1.272a43.193,43.193,0,0,0,1.9,5.013c.18.376.323.739.518,1.08a8.242,8.242,0,0,0,.636.965c.12.153.232.312.356.463l.405.433a11.218,11.218,0,0,0,.873.826,17.7,17.7,0,0,0,4.316,2.57,32.494,32.494,0,0,0,4.992,1.668c.851.218,1.765.434,2.566.574a20.012,20.012,0,0,0,2.534.259,31.271,31.271,0,0,0,5.238-.286,72.777,72.777,0,0,0,10.549-2.332c.875-.236,1.733-.544,2.6-.813s1.732-.552,2.585-.872l2.571-.924,2.542-1.006c.851-.326,1.69-.683,2.525-1.05l2.509-1.091c1.645-.786,3.318-1.518,4.932-2.367,3.275-1.609,6.434-3.432,9.54-5.322a94.609,94.609,0,0,0,8.871-6.265l2.1-1.811.524-.453.492-.482Z" transform="translate(-630.937 -210.098)" fill="#202020"/>
  <path id="Path_274" data-name="Path 274" d="M860.478,480.1c-.021-.028-.029-.037.008-.125a3.205,3.205,0,0,1,2.491-2.04.472.472,0,0,1,.183.006c.031.038.617.755,1.424,1.85s1.825,2.574,2.75,4.1,1.769,3.1,2.356,4.3.939,2.015.939,2.015.158.564.314,1.343a16.261,16.261,0,0,1,.33,2.609c.194,2.8-.889,1.976-1.806.6a14.8,14.8,0,0,1-1-1.62l-.713-1.177-.338-.532s-.329-.752-.877-1.859-1.329-2.561-2.192-3.972-1.8-2.784-2.552-3.792S860.508,480.131,860.478,480.1Z" transform="translate(-630.937 -210.098)" fill="#202020"/>
  <path id="Path_275" data-name="Path 275" d="M829.614,496.658c0-.031,0-.042.072-.093a3.753,3.753,0,0,1,3.186-.465.476.476,0,0,1,.151.071c.005.038.1.745.285,1.777s.471,2.388.826,3.721.77,2.646,1.114,3.617.6,1.607.6,1.607l.173,1.066c.091.619.2,1.408.238,2.1.288,2.268-.76,1.864-1.74.77a7.591,7.591,0,0,1-.987-1.331c-.48-.727-.933-1.5-.933-1.5s-.27-.673-.631-1.7-.8-2.413-1.175-3.824-.68-2.843-.874-3.935S829.62,496.7,829.614,496.658Z" transform="translate(-630.937 -210.098)" fill="#202020"/>
  <path id="Path_276" data-name="Path 276" d="M786.5,489.994a.315.315,0,0,1,.167-.191,3.349,3.349,0,0,1,.323-.214,2.245,2.245,0,0,1,.417-.206,1.333,1.333,0,0,1,.851-.052,1.552,1.552,0,0,1,.749.559,4.571,4.571,0,0,1,.334.489,2.93,2.93,0,0,1,.309.632.885.885,0,0,1,.037.285c-.647,1.648-1.236,3.477-1.808,5.265-2.009,6.37-3.85,12.825-5.72,19.283l-1.44,4.834q-.705,2.4-1.369,4.819l-2.631,9.731c-.9,3.259-1.882,6.518-2.984,9.732l-.845,2.4-.883,2.387-1.822,4.706-4.857,12.905s-2.185,4.793-4.124,7.993c-1.583,2.748-2.4,3.385-2.534,2.943-.149-.447.285-1.954.832-3.8-.107.173.63-2,1.347-4.239l1.435-4.536,5.062-13.443c1.212-3.092,2.369-6.116,3.406-9.222s1.971-6.221,2.836-9.391l2.584-9.57q.664-2.4,1.368-4.792l.717-2.387.7-2.353c1.834-6.345,3.649-12.7,5.648-19.041C785.19,493.686,785.76,491.888,786.5,489.994Z" transform="translate(-630.937 -210.098)" fill="#202020"/>
  <path id="Path_277" data-name="Path 277" d="M819.458,554.781c3.4,8.038,9.289,19.027,14.377,29.538l2.246,5.109h22.147l-5.72-83.486s-28.163,11.391-44.556,3.6-12.165-7.313-12.165-7.313l4.928,30.935s1.642,16.227,6.626,17.662S819.458,554.781,819.458,554.781Z" transform="translate(-630.937 -210.098)" fill="#231f20"/>
  <path id="Path_278" data-name="Path 278" d="M813.242,403.552a.284.284,0,0,1,.053-.234c.378-.825,1.472-2.041,3.188-.442a.952.952,0,0,1,.175.247c.264,1.865.493,3.735.786,5.6a216.947,216.947,0,0,0,5.206,23.79q3.234,11.758,7.528,23.2,4.257,11.434,9.623,22.406c.859,1.843,1.809,3.638,2.742,5.442l1.4,2.7,1.482,2.659,1.037,1.863c.274.483.532.975.818,1.45l1.365,2.738c.386.791.817,1.69,1.242,2.6s.9,1.808,1.284,2.647c2.773,5.6.805,3.973-1.664.931a7.249,7.249,0,0,1-.811-1c-.257-.342-.574-.742-.892-1.191l-.99-1.426-1.875-2.718c-.514-.748-.853-1.253-.853-1.253l-2.365-4.244c-1.014-1.759-1.9-3.583-2.843-5.377-.461-.9-.945-1.794-1.385-2.707l-1.318-2.738q-5.259-10.959-9.512-22.354-4.215-11.394-7.437-23.125a219.805,219.805,0,0,1-5.182-23.76C813.746,407.362,813.512,405.454,813.242,403.552Z" transform="translate(-630.937 -210.098)" fill="#202020"/>
  <path id="Path_279" data-name="Path 279" d="M867.994,420.386a.293.293,0,0,1-.007-.243c.155-.912.93-2.323,2.983-1.208a.9.9,0,0,1,.229.193c.353.857.687,1.72,1.055,2.572l1.187,2.53a177.492,177.492,0,0,0,12.894,21.326l7.1,10.412c1.187,1.737,2.34,3.51,3.5,5.27l1.9,2.987s.163.287.416.781l1,2c.814,1.59,1.7,3.682,2.378,5.415,2.224,5.923.367,3.977-1.73.8.062.193-1.189-1.729-2.489-3.669l-1.851-2.664c-.508-.73-.868-1.21-.868-1.21l-.88-1.381-.44-.691-.294-.461-.423-.643c-1.129-1.714-2.26-3.427-3.421-5.128l-6.978-10.232a178.2,178.2,0,0,1-12.91-21.4l-1.238-2.637C868.72,422.2,868.366,421.288,867.994,420.386Z" transform="translate(-630.937 -210.098)" fill="#202020"/>
  <path id="Path_280" data-name="Path 280" d="M797.573,580.377c7.581-9.1,14.956-19.705,23.89-27.474v-7.322s-12.75-3.163-15.687-11.071S798.632,499,798.632,499s-9.053-13-10.48-19.35l-11.745,45.27Z" transform="translate(-630.937 -210.098)" fill="#231f20"/>
  <path id="Path_281" data-name="Path 281" d="M722.837,471.53c.021-.075.029-.1.135-.179a2.443,2.443,0,0,1,1.442-.608c.577-.007,1.209.292,1.675,1.414a1.037,1.037,0,0,1,.06.316,33.411,33.411,0,0,1-2.219,5.594,66.738,66.738,0,0,1-10.07,14.119,154.531,154.531,0,0,1-12.217,11.991c-2.125,1.89-4.286,3.732-6.456,5.553l-3.258,2.714-2.558,2.136-.81.679c-.018.02-.034.028-.046,0l-.041-.052-.082-.1-.164-.208-.327-.415-1.309-1.66-1.438-1.836-1.3-1.69c-.855-1.134-1.714-2.266-2.552-3.413-1.69-2.284-3.323-4.61-4.939-6.946-3.205-4.692-6.275-9.477-9.165-14.37q-2.18-3.662-4.223-7.4l-1.019-1.871-1.047-1.974-.987-1.864c-.011-.038-.062-.081-.041-.114l.09-.1.179-.194.358-.388.717-.775,1.586-1.717c7.7-8.287,15.59-16.456,24.12-23.994,2.322-2.074,4.719-4.07,7.141-6.035,1.231-.96,2.44-1.947,3.7-2.874l1.875-1.405,2.116-1.514.936-.669.47-.336.117-.084c.039-.018.079-.085.117-.031l.232.172,1.83,1.361.954.782.915.817a37.006,37.006,0,0,1,3.323,3.546,60.225,60.225,0,0,1,5.382,7.864c.8,1.349,1.558,2.736,2.3,4.082l2.236,4.072,1.1,2.066.41.791.275.535c.361.718.725,1.434,1.07,2.162,0,0,.509,1.234,1.1,2.942a45.827,45.827,0,0,1,1.6,5.73,15.133,15.133,0,0,1,.463,3.192c0,.611-.13.8-.336.7-.418-.219-1.133-1.646-1.962-3.367.03.2-.866-1.894-1.922-3.963-.524-1.036-1.075-2.072-1.5-2.848l-.719-1.29c-.331-.665-.656-1.332-1-1.993l-.561-1.082c-.673-1.289-1.374-2.569-2.08-3.855l-2.127-3.859q-1.06-1.9-2.184-3.749a49.921,49.921,0,0,0-5-6.9,31.367,31.367,0,0,0-2.959-2.944l-.9-.74-.5.357a167.476,167.476,0,0,0-13.624,10.944c-8.394,7.418-16.213,15.508-23.875,23.758l-1.286,1.392v0l.937,1.766,1.006,1.846q2.025,3.684,4.167,7.3c2.851,4.827,5.881,9.548,9.043,14.177,1.6,2.3,3.206,4.6,4.873,6.854.827,1.131,1.675,2.248,2.519,3.367l1.281,1.666,1.171,1.5h0l.69-.574,3.247-2.7c2.154-1.807,4.289-3.627,6.381-5.489A150.835,150.835,0,0,0,711.3,489.888a63.5,63.5,0,0,0,9.554-13.36A29.993,29.993,0,0,0,722.837,471.53Z" transform="translate(-630.937 -210.098)" fill="#202020"/>
  <path id="Path_282" data-name="Path 282" d="M663.083,473.4a.284.284,0,0,1-.218-.094c-.722-.521-1.785-1.822.094-3.219a.938.938,0,0,1,.278-.126c1.922.082,3.838.207,5.746.352,6.887.511,13.682,1.315,20.431,1.443,1.041.007,2.085.036,3.123,0l.86.048c.54.041,1.294.061,2.164.092.871.046,1.854.059,2.85.074,1,.038,2,.013,2.92.033l1.941-.01a10.268,10.268,0,0,1,1.233.071c.6.083.788.227.658.42a3.135,3.135,0,0,1-1.23.676,17.261,17.261,0,0,1-2.473.745,7.432,7.432,0,0,1-1.267.293c-.847.178-2.026.331-3.218.519-1.194.132-2.406.292-3.318.357l-1.527.119c-.929.025-1.853-.01-2.779-.012-6.979-.131-13.829-.943-20.623-1.441C666.843,473.6,664.962,473.479,663.083,473.4Z" transform="translate(-630.937 -210.098)" fill="#202020"/>
  <path id="Path_283" data-name="Path 283" d="M700.077,433.93a1.131,1.131,0,0,1,.323-.6,2.063,2.063,0,0,1,1.557-.679,1.19,1.19,0,0,1,.975.467.523.523,0,0,1,.016.593,1.37,1.37,0,0,1-.371.243,1.486,1.486,0,0,1-.225.078.466.466,0,0,0-.111.057.294.294,0,0,0,.049-.037c.026-.028.028-.021.042-.039s.02-.033.017-.024l0,0a.094.094,0,0,0-.006.032.384.384,0,0,0,.014.1.915.915,0,0,0,.172.333,1.293,1.293,0,0,0,.12.123.756.756,0,0,0-.185-.074.538.538,0,0,0-.164-.018.149.149,0,0,0-.05.005l-.007,0h0c-1.051.243,1.432-.331,1.176-.271v.008l.005.022.01.044.078.353.156.7.309,1.411c.187.945.4,1.885.565,2.833a141.581,141.581,0,0,1,2.167,16.992c.076,1.071.134,2.143.18,3.215l-.024.888-.11,2.23c-.122,1.79-.322,4.039-.633,5.879-.441,3.125-.885,4.033-1.194,3.692-.329-.342-.528-1.933-.705-3.851-.04.2-.148-2.1-.34-4.427-.175-2.333-.441-4.7-.441-4.7-.037-.9-.093-1.8-.155-2.693a137.972,137.972,0,0,0-2.125-16.58c-.165-.925-.369-1.842-.552-2.764l-.3-1.376-.153-.687-.076-.344-.027-.128a2.743,2.743,0,0,1-.045-.37A2.428,2.428,0,0,1,700.077,433.93Z" transform="translate(-630.937 -210.098)" fill="#202020"/>
  <path id="Path_284" data-name="Path 284" d="M690.99,473.045a.63.63,0,0,1,.268-.274,2.116,2.116,0,0,1,1.02-.392,1.1,1.1,0,0,1,.882.3c.431.409.281,1.242.772,1.887a.515.515,0,0,1,.07.148,2.9,2.9,0,0,0-.253.827c-.034.185-.063.384-.088.6l-.085.707-.339,2.834-1.78,14.855-.378,3.159s-.969,5.157-1.924,8.74c-1.465,6.1-1.926,3.536-1.875-.346-.122.391.448-9.247.448-9.247l.323-2.712,1.77-14.856.337-2.834.085-.708c.031-.258.069-.53.12-.813A6.214,6.214,0,0,1,690.99,473.045Z" transform="translate(-630.937 -210.098)" fill="#202020"/>
  <path id="Path_285" data-name="Path 285" d="M704.165,464.474c-.033,0-.045,0-.092-.082a3.312,3.312,0,0,1-.108-3.218.456.456,0,0,1,.111-.142c.047,0,.939-.031,2.251-.011s3.041.1,4.756.284,3.415.444,4.679.688,2.1.446,2.1.446.526.208,1.215.544a15.537,15.537,0,0,1,2.2,1.277c2.265,1.493.995,1.879-.6,1.8a13.61,13.61,0,0,1-1.829-.157l-1.321-.124-.606-.044s-.77-.183-1.94-.4-2.741-.465-4.327-.624-3.186-.239-4.4-.252S704.21,464.472,704.165,464.474Z" transform="translate(-630.937 -210.098)" fill="#202020"/>
  <path id="Path_286" data-name="Path 286" d="M876.749,557.93a.287.287,0,0,1-.238.031c-.9-.071-2.441-.669-1.54-2.827a.94.94,0,0,1,.172-.249c1.672-.888,3.348-1.769,5-2.688,8.987-4.9,17.752-10.2,26.3-15.831q6.4-4.236,12.637-8.718c2.068-1.507,4.137-3.012,6.176-4.559l1.519-1.142,1.324-1.02,2.573-1.68c1.471-.977,3.36-2.167,4.942-3.122,5.285-3.355,3.851-1.208,1.1,1.557.185-.092-1.519,1.482-3.286,3.068-.877.8-1.782,1.586-2.462,2.18l-1.137.992-1.316,1.01-1.921,1.443c-2.024,1.534-4.084,3.018-6.139,4.51q-6.183,4.449-12.554,8.632c-4.235,2.8-8.543,5.494-12.893,8.114s-8.754,5.152-13.212,7.584C880.128,556.144,878.436,557.033,876.749,557.93Z" transform="translate(-630.937 -210.098)" fill="#fff"/>
  <path id="Path_287" data-name="Path 287" d="M902.3,517.723a.574.574,0,0,1,.353-.083,2.036,2.036,0,0,1,.986.187,1.21,1.21,0,0,1,.623.647c.232.55-.154,1.234-.234,2.075a.6.6,0,0,1-.042.176,1.625,1.625,0,0,0-.442,2.443,2.671,2.671,0,0,0,2.873.975,3.981,3.981,0,0,0,1.91-1.039,3.1,3.1,0,0,0,.408-.4,2.051,2.051,0,0,0,.516-1.052,1.631,1.631,0,0,0-.118-.772,3.617,3.617,0,0,0-.579-.959,8.606,8.606,0,0,0-1.941-1.72,5.623,5.623,0,0,0-2.67-.865c-.564-.027-.8-.084-.708-.312a2.023,2.023,0,0,1,1.346-.775,5.449,5.449,0,0,1,2.919.264,4.587,4.587,0,0,1,1.329.588,9.4,9.4,0,0,1,1.394.958,6.229,6.229,0,0,1,1.425,1.663,4.455,4.455,0,0,1,.581,2.493,5.05,5.05,0,0,1-.649,2.117,6.25,6.25,0,0,1-.865,1.193c-.238.258-.389.391-.389.391a7.413,7.413,0,0,1-3.162,1.569,6.478,6.478,0,0,1-3.507-.156,5.978,5.978,0,0,1-2.912-2.165,5.064,5.064,0,0,1,1.555-7.446Z" transform="translate(-630.937 -210.098)" fill="#fff"/>
  <path id="Path_288" data-name="Path 288" d="M831.02,339.056a.345.345,0,0,1,.189.183,2.057,2.057,0,0,1,.4,1.562c-.127.562-.646,1.065-1.694,1.387a.811.811,0,0,1-.275.022,15.471,15.471,0,0,0-15.536,1.917,24.945,24.945,0,0,0-3.927,4.347,49.137,49.137,0,0,0-3.315,5.1c-.512.888-.98,1.8-1.427,2.717,0,0-.637,1.09-1.42,2.611a41.662,41.662,0,0,0-2.186,5.191c-.456,1.441-.659,2.414-.838,2.984s-.359.74-.53.581a3.128,3.128,0,0,1-.448-1.366,12.332,12.332,0,0,1-.034-2.662,20.542,20.542,0,0,1,.9-4.583c.336-1.184.755-2.35,1.086-3.223l.581-1.445c.433-.837.856-1.681,1.329-2.494a52.6,52.6,0,0,1,3.549-5.463c.652-.873,1.333-1.729,2.06-2.559.375-.412.713-.826,1.154-1.235l.63-.612c.216-.2.45-.374.675-.561a17.445,17.445,0,0,1,6.155-3.2,19.635,19.635,0,0,1,6.85-.7A18.507,18.507,0,0,1,831.02,339.056Z" transform="translate(-630.937 -210.098)" fill="#202020"/>
  <path id="Path_289" data-name="Path 289" d="M789.621,427.316a.291.291,0,0,1,.236-.041c.905.033,2.473.561,1.668,2.754a.94.94,0,0,1-.161.257l-4.9,2.9c-9.344,5.561-18.758,11.1-28.563,16a132.672,132.672,0,0,1-15.151,6.565c-1.314.45-2.653.848-3.979,1.273-.676.183-1.364.341-2.046.511-.689.155-1.355.365-2.062.472l-2.007.314-.878.136-.142.021-.208,0a2.52,2.52,0,0,1-.417-.016c-.134-.018-.286-.036-.4-.065l-.328-.086a6.921,6.921,0,0,1-1.027-.481,18.657,18.657,0,0,1-1.975-1.325c-1.458-1.087-3.14-2.5-4.586-3.518a9.361,9.361,0,0,0-2.6-1.336c-.518-.122-.767-.156-.665-.388a1.81,1.81,0,0,1,1.512-.539,7.8,7.8,0,0,1,2.722.621,6.071,6.071,0,0,1,1.234.524c.795.383,1.844.957,2.875,1.527s2.057,1.124,2.771,1.42a3.808,3.808,0,0,0,.74.24c.064.007.084.011.077,0v-.007l1.241-.2.774-.121.6-.093a7.093,7.093,0,0,0,.939-.2,62.211,62.211,0,0,0,7.462-2.218,136.089,136.089,0,0,0,14.487-6.359c9.478-4.771,18.667-10.172,27.847-15.64Z" transform="translate(-630.937 -210.098)" fill="#202020"/>
  <path id="Path_290" data-name="Path 290" d="M785.652,461.45a.283.283,0,0,1,.234.037c.833.322,2.182,1.316.716,3.139a.951.951,0,0,1-.237.192c-1.877.4-3.758.766-5.643,1.114a267.392,267.392,0,0,1-27.7,3.6c-4.647.355-9.31.564-13.992.573h-1.272l-.045.036-.091.065-.224.2-.246.244c-.678.72-1.378,1.64-2.078,2.544l-1.153,1.489-1.074,1.341s-.9,1-2.285,2.236a20.931,20.931,0,0,1-5.056,3.45,8.8,8.8,0,0,1-3.153.981c-.62.037-.812-.089-.712-.3.2-.431,1.543-1.172,2.941-2.35a10.121,10.121,0,0,1,.908-.79,25.43,25.43,0,0,0,2.143-2.136c.752-.836,1.462-1.737,1.982-2.432l.859-1.177,1-1.268,1.381-1.789c.354-.457.721-.919,1.112-1.385a12.156,12.156,0,0,1,1.388-1.435c.132-.122.324-.252.494-.377a3.98,3.98,0,0,1,.747-.383,2.341,2.341,0,0,1,.406-.122l.42-.052a.793.793,0,0,1,.214-.022h.39l1.686,0c4.5-.022,9.007-.253,13.508-.6a264.036,264.036,0,0,0,26.873-3.516C781.954,462.2,783.807,461.845,785.652,461.45Z" transform="translate(-630.937 -210.098)" fill="#202020"/>
  <path id="Path_291" data-name="Path 291" d="M841.241,361.231a.284.284,0,0,1,.235.04c.835.336,2.155,1.356.662,3.151a.957.957,0,0,1-.239.188l-3.826.732-2.986.543q-9.9,1.788-19.856,3.2-19.914,2.817-40.005,4.1c-1.673.113-3.346.209-5.02.3s-3.347.177-5.022.248l-1.255.057-.628.028-.469.021-.312.014a.964.964,0,0,1-.3-.086l-1.354-.5a8.812,8.812,0,0,0-1.158-.355l-2.331-.624a23.679,23.679,0,0,0-2.357-.57,106.611,106.611,0,0,0-19.589-2.089c-7.258-.185-14.547.09-21.829.574s-14.556,1.227-21.9,1.868c-.914.086-1.843.147-2.769.214l-1.388.1-1.418.055-.709.028-.511.019a1.363,1.363,0,0,1-.662-.134l-1.39-.471-2.608-.888c-3.474-1.184-6.932-2.393-10.389-3.471a93.127,93.127,0,0,0-10.479-2.641l-.666-.127-.332-.063-.056-.01-.09-.005c-.4-.033-.811-.013-1.216-.023a17.3,17.3,0,0,0-2.477.27,31.145,31.145,0,0,0-5.017,1.409c-1.678.6-3.36,1.28-5.064,1.965L641.9,369.32l-.649.252a4.507,4.507,0,0,1-.531.187l-.476.075-1.313.226c-.871.161-1.734.344-2.559.562-.412.109-.813.229-1.186.36l-.273.1-.13.052c-.038.018,0,0-.012,0l0,0c-.007,0,0,.011,0,.015s-.021-.025.114.09a3.278,3.278,0,0,0,.381.229,5.608,5.608,0,0,0,.969.384,16.2,16.2,0,0,0,4.9.462,28.363,28.363,0,0,0,5.132-.66l.313-.072.078-.018.177-.046.333-.1a11.4,11.4,0,0,0,1.352-.435l.7-.266.764-.359,1.572-.74,1.539-.724.178-.084c.043-.027.046-.015.027.021l-.029.076-.115.3-.253.666-1.026,2.7c-.173.454-.347.909-.494,1.347s-.321.906-.423,1.267l-.176.578-.077.257-.042.156c-.055.209-.117.417-.165.627a23.3,23.3,0,0,0-.489,2.513,16.105,16.105,0,0,0,.041,4.953,12.25,12.25,0,0,0,1.715,4.473l.125.195a1.05,1.05,0,0,0,.064.1l.134.183c.092.121.174.251.274.363a9.133,9.133,0,0,0,1.246,1.285l.118.111a4.478,4.478,0,0,0,.364.325,7.237,7.237,0,0,0,1.7,1.121,8.612,8.612,0,0,0,2.285.736,8.786,8.786,0,0,0,2.564.07,11.044,11.044,0,0,0,2.811-.873c.534-.237.778-.235.777,0a2.5,2.5,0,0,1-.792,1.253,6.867,6.867,0,0,1-2.407,1.485,5.539,5.539,0,0,1-1.856.475,10.621,10.621,0,0,1-4.39-.371,10.1,10.1,0,0,1-2.613-1.21,10.368,10.368,0,0,1-1.157-.846,12.181,12.181,0,0,1-1.6-1.78c-.116-.161-.237-.319-.347-.483l-.08-.124-.16-.248c-.067-.108-.141-.212-.2-.323l-.372-.662a15.516,15.516,0,0,1-1.131-2.786,17.669,17.669,0,0,1-.686-5.863,25.168,25.168,0,0,1,.94-5.655l.093-.333-.978.218q-1.394.287-2.8.443a27.336,27.336,0,0,1-5.713.093,14.3,14.3,0,0,1-2.985-.6,8.568,8.568,0,0,1-1.544-.667,6.434,6.434,0,0,1-.77-.524,6.048,6.048,0,0,1-.9-.916,5.639,5.639,0,0,1-.792-1.711c-.014-.2-.044-.391-.045-.586a2.626,2.626,0,0,1,1.213-1.987,6.153,6.153,0,0,1,1.149-.637l.252-.1.183-.07.362-.132c.478-.166.943-.3,1.4-.424.923-.244,1.832-.435,2.74-.606l1.36-.236.3-.048s-.006,0,.009,0l.617-.239c3.3-1.266,6.566-2.74,10.146-3.829a24.526,24.526,0,0,1,5.636-1.084c.489-.041.986-.038,1.484-.032.247,0,.5.016.75.03a3.118,3.118,0,0,1,.519.07l.334.063c.891.164,1.78.345,2.669.531a104,104,0,0,1,10.5,2.856c3.428,1.113,6.8,2.291,10.174,3.438l2.44.827,2.107-.082c1.755-.12,3.514-.246,5.289-.411,14.182-1.315,28.522-2.717,42.949-2.354a110,110,0,0,1,20.223,2.164c.839.134,1.675.387,2.512.607l2.509.676a10.216,10.216,0,0,1,1.235.381l1,.366,2.029-.091c1.663-.071,3.326-.15,4.989-.247s3.325-.182,4.986-.3q19.941-1.276,39.743-4.077,9.892-1.4,19.726-3.178l2.966-.539Z" transform="translate(-630.937 -210.098)" fill="#202020"/>
  <path id="Path_292" data-name="Path 292" d="M843.741,399.037a.282.282,0,0,1,.23.058c.8.4,2.068,1.513.447,3.189a.911.911,0,0,1-.253.169l-2.868.325-1.434.162-1.438.112a165.416,165.416,0,0,1-26.1.118c-8.677-.588-17.276-1.816-25.8-3.077-4.247-.622-8.553-1.259-12.7-1.725l-6.425-.321-3.213-.161-.736-.036-.651.051-1.612.128q-12.891,1.023-25.8,1.97c-8.55.613-17.1,1.2-25.678,1.641-4.291.215-8.578.414-12.915.456h-1.635l-1.311-.026c-.529-.019-1.061-.04-1.568-.084a5.533,5.533,0,0,1-2.456-.589,1.99,1.99,0,0,1-.568-.531,1.508,1.508,0,0,1-.155-.328l-.085-.215c-.015-.016,0-.056-.039-.053l-.005-.021-.01-.043c-.024-.109-.093-.258-.159-.439l-.129-.333-.076-.2-.043-.111a1.2,1.2,0,0,1,.194-.133c.57-.363,1.124-.712,1.626-1.054.479-.342.92-.683,1.331-1.033.2-.176.414-.352.6-.524l.42-.385.545-.528c.361-.357.713-.726,1.059-1.1a37.914,37.914,0,0,0,3.774-4.832l.4-.635.189-.317.14-.247,0-.009s0,0-.006-.005l-.717-.147c-4.129-.839-8.355-1.4-12.621-2.14l-.8-.141c-.035-.005-.01,0-.023,0l-1.353.5-2.98,1.153c-2,.774-4.018,1.58-6.16,2.232a32.014,32.014,0,0,1-3.286.824l-.559.106c-.269.057-.543.089-.816.126-.361.046-.721.1-1.083.138l-1.088.079-.151,0c-.106,0-.273.009-.517,0-.319-.023-.83-.047-1.46-.1-.626-.091-1.383-.144-2.174-.314l-1.222-.241-1.237-.321-1.14-.313a8.77,8.77,0,0,0-1.037-.2,4.714,4.714,0,0,0-1.651.077,1.791,1.791,0,0,0-.839.462c-.338.387-.484.611-.645.41a.938.938,0,0,1-.1-.6,1.846,1.846,0,0,1,.5-1.056,4.405,4.405,0,0,1,2.818-1.2,2.6,2.6,0,0,1,.9-.067c.306,0,.716.03,1.106.066l1.2.1a29.733,29.733,0,0,0,4.881-.033c.308-.016.556-.069.729-.087l.269-.038c.493-.023.982-.091,1.471-.159.237-.032.476-.058.712-.109l.49-.094a28.725,28.725,0,0,0,2.94-.738c1.956-.593,3.92-1.372,5.914-2.147l3.011-1.165,1.659-.617.375-.139.188-.07c.063-.023.131.014.2.018l.775.137.783.138c4.172.725,8.444,1.291,12.712,2.157l.86.177,1.568.339a.286.286,0,0,1,.159.066l.128.085.256.169.512.34c.087.059.179.1.219.2a1.826,1.826,0,0,1,.151.291,2.08,2.08,0,0,1,.148.6,5.378,5.378,0,0,1-.876,2.786l-.255.453-.222.373-.456.725a41.336,41.336,0,0,1-4.125,5.285c-.379.412-.767.818-1.167,1.214l-.609.59-.178.167,1.868,0c4.228-.041,8.5-.238,12.763-.452,8.532-.444,17.072-1.025,25.608-1.638q12.887-.93,25.773-1.97l1.611-.128.4-.032.2-.016.154-.012a1.047,1.047,0,0,1,.2-.005l.879.044,3.244.163,6.489.325c4.421.493,8.642,1.125,12.925,1.75,8.526,1.261,17.012,2.471,25.541,3.048a161.962,161.962,0,0,0,25.564-.116l1.407-.109,1.4-.159Z" transform="translate(-630.937 -210.098)" fill="#202020"/>
  <path id="Path_293" data-name="Path 293" d="M799.652,502.477a.289.289,0,0,1,.05-.234c.366-.827,1.437-2.092,3.175-.531a.918.918,0,0,1,.179.244l.875,5.629c1.65,10.352,3.443,20.685,5.554,30.931l.653,3.1.125.839c.08.519.2,1.233.384,2.008a9.139,9.139,0,0,0,.879,2.332,5.633,5.633,0,0,0,1.667,1.837c1.182.779,2.166,1.151,2.669,1.476.521.311.632.516.434.642a2.962,2.962,0,0,1-1.411.127,8.665,8.665,0,0,1-2.676-.611,4.163,4.163,0,0,1-1.322-.705,7.817,7.817,0,0,1-1.306-1.192,9.567,9.567,0,0,1-1.134-1.66,17.741,17.741,0,0,1-1.329-3.324c-.272-.9-.426-1.485-.426-1.485l-.565-2.684c-2.132-10.327-3.934-20.7-5.594-31.087Z" transform="translate(-630.937 -210.098)" fill="#fff"/>
  <path id="Path_294" data-name="Path 294" d="M795.531,582.278s-27.357.058-31.947-15.313l14.7-38.609Z" transform="translate(-630.937 -210.098)" fill="#231f20"/>
  <path id="Path_295" data-name="Path 295" d="M699.718,370.976a.272.272,0,0,1,.031-.227,2.345,2.345,0,0,1,.969-1.232c.505-.277,1.206-.3,2.152.442a.983.983,0,0,1,.2.241,38.5,38.5,0,0,1,.885,5.909,30.321,30.321,0,0,1-.51,8.186,24.194,24.194,0,0,1-1.159,3.991A36.687,36.687,0,0,1,700.632,392a24.859,24.859,0,0,1-2.182,3.547,15.815,15.815,0,0,1-1.411,1.651c-.124.134-.268.259-.4.388l-.349.326c-.2.182-.4.4-.626.626a14.644,14.644,0,0,1-1.595,1.493,7.658,7.658,0,0,1-3.369,1.5c-.111.019-.17.039-.324.056l-.449.054a2.372,2.372,0,0,1-.463.01c-.147-.063-.316-.02-.462-.086a2.84,2.84,0,0,1-.859-.4,4.3,4.3,0,0,1-.383-.273l-.262-.218a8.682,8.682,0,0,1-.85-.87,8.882,8.882,0,0,1-1.107-1.628,6.393,6.393,0,0,1-.687-2.053l-.024-.348c-.005-.2.013-.39.023-.68l.116-2.245c.056-.9.106-1.915.205-2.932a20.81,20.81,0,0,1,.513-3.032,6.55,6.55,0,0,1,1.437-3.039c.447-.45.682-.46.735-.239a5,5,0,0,1-.136,1.305,16.164,16.164,0,0,0-.163,2.321,9.5,9.5,0,0,1,.04,1.2c.024.8.1,1.961.224,3.12l.295,3.206.054.6a1.365,1.365,0,0,0,.053.309c.037.133.076.22.072.218a4.6,4.6,0,0,0,.959,1.691,5.387,5.387,0,0,0,.5.517l.111.091.008.009.011,0,.032,0,.152-.03a4.374,4.374,0,0,0,.687-.178,6.031,6.031,0,0,0,2.434-1.824c.227-.235.47-.487.747-.746l.36-.337c.1-.1.2-.18.3-.285a12.476,12.476,0,0,0,1.106-1.3,21.516,21.516,0,0,0,1.876-3.059,33.611,33.611,0,0,0,1.5-3.371,20.882,20.882,0,0,0,1-3.455,26.94,26.94,0,0,0,.445-7.262A35.1,35.1,0,0,0,699.718,370.976Z" transform="translate(-630.937 -210.098)" fill="#202020"/>
  <path id="Path_296" data-name="Path 296" d="M687.1,384.571l12.562,2.417s-4.792,12.66-11.3,12.191S687.1,384.571,687.1,384.571Z" transform="translate(-630.937 -210.098)" fill="#231f20"/>
  <path id="Path_297" data-name="Path 297" d="M914.989,281.9s-25.051-48.186-30.834-56.989-15.054-10.524-16.128-5.574-1.373,20.625-17.963,20.985c-7.435.161-14.426.812-18.412,2.519a3.679,3.679,0,0,0-.323,6.585c16.173,9.07,62.848,38.37,65.383,40.544,3.071,2.633,10.531,5.887,13.763,4.465S917.093,287.746,914.989,281.9Z" transform="translate(-630.937 -210.098)" fill="#231f20"/>
  <path id="Path_298" data-name="Path 298" d="M850.6,237.568a.3.3,0,0,1-.061-.238c-.052-.94.414-2.468,2.648-1.832a.921.921,0,0,1,.262.137l.777,1.134.841,1.111c.555.744,1.12,1.484,1.722,2.2A174.735,174.735,0,0,0,870.3,254.738c2.372,2.34,4.825,4.593,7.3,6.81,1.256,1.088,2.508,2.183,3.787,3.239l2.643,2.14,2.265,2.025c1.318,1.138,2.978,2.588,4.392,3.73l.823.672q.386.28.691.519a10.223,10.223,0,0,1,.931.8c.43.435.5.658.279.738a3.079,3.079,0,0,1-1.392-.209c-.34-.1-.725-.228-1.142-.379s-.832-.368-1.282-.579a7.476,7.476,0,0,1-1.175-.576c-.392-.2-.838-.451-1.309-.743l-1.5-.909c-.521-.307-1.028-.634-1.495-.953l-1.294-.864-.919-.616c-.224-.147-.344-.24-.344-.24l-2.821-2.291c-1.263-1.091-2.547-2.159-3.786-3.273s-2.489-2.218-3.69-3.369l-1.82-1.71-1.786-1.744a176.175,176.175,0,0,1-13.548-14.713c-.619-.74-1.209-1.511-1.793-2.292l-.88-1.163Z" transform="translate(-630.937 -210.098)" fill="#fff"/>
  <path id="Path_299" data-name="Path 299" d="M805.243,402.856a.288.288,0,0,1,.117-.21c.6-.693,2-1.553,3.189.447a.939.939,0,0,1,.1.285c-.287,1.865-.552,3.741-.8,5.617A344.049,344.049,0,0,0,804.9,443.37c-.16,5.738-.173,11.482.2,17.18.158,2.853.467,5.682.834,8.5l.3,1.893c.09.54.164,1.085.283,1.616l.109.848c.077.528.132,1.288.288,2.132s.253,1.832.473,2.785l.282,1.448c.08.484.224.928.318,1.372.351,1.5.69,2.435.771,3.043s.017.824-.207.761a3.1,3.1,0,0,1-1.008-.99c-.213-.284-.467-.611-.7-.988s-.445-.8-.676-1.247a5.857,5.857,0,0,1-.589-1.183c-.161-.407-.353-.89-.56-1.412l-.318-.814-.282-.857-.55-1.707c-.17-.549-.294-1.068-.417-1.512l-.4-1.49-.274-1.664-.135-.833-.108-.669L802.4,468.5l-.269-2.153-.2-2.155c-.154-1.436-.211-2.873-.32-4.309-.314-5.745-.307-11.482-.131-17.2.391-11.441,1.45-22.821,2.954-34.143Q804.811,405.7,805.243,402.856Z" transform="translate(-630.937 -210.098)" fill="#202020"/>
  <path id="Path_300" data-name="Path 300" d="M786.846,481.764a1.07,1.07,0,0,1,.013-.23c.106-.794.286-1.855.755-.092.009.032.044.184.054.261a5.772,5.772,0,0,0,.076.694l.115.688.115.687.171.677.169.675c.048.227.138.443.208.664.158.437.277.886.465,1.311.256.575.465,1.168.772,1.719l.43.838c.146.277.321.54.48.81s.316.542.493.8l.54.771c.344.525.763,1,1.147,1.491s.836.935,1.249,1.4c.446.44.889.882,1.349,1.306a28.648,28.648,0,0,0,2.943,2.319l.774.524c.263.168.535.321.8.482.528.331,1.082.616,1.635.9a33.544,33.544,0,0,0,3.431,1.487c1.179.411,2.369.789,3.584,1.083.607.148,1.213.3,1.829.408.611.129,1.228.233,1.848.323.254.038.507.086.763.115l.767.091c.511.067,1.024.114,1.538.153l.844.122c.531.054,1.273.169,2.135.247.86.1,1.837.176,2.826.265l2.9.224a24.272,24.272,0,0,1,3.155.3c.594.13.763.292.616.472-.3.356-1.865.784-3.817,1.025a7.3,7.3,0,0,1-1.289.148c-.86.06-2.048.117-3.254.128l-1.78-.018-1.566-.072c-.919-.06-1.536-.122-1.536-.122-.465-.055-.926-.145-1.388-.22s-.923-.158-1.382-.259c-.651-.129-1.3-.271-1.943-.44-.647-.15-1.286-.341-1.923-.53-1.276-.377-2.526-.842-3.758-1.344a35.421,35.421,0,0,1-3.582-1.768c-.58-.332-1.158-.667-1.706-1.049-.276-.186-.558-.365-.829-.558l-.8-.6a30.32,30.32,0,0,1-3-2.619c-.465-.473-.912-.965-1.359-1.454-.415-.519-.858-1.012-1.247-1.55s-.795-1.06-1.132-1.633l-.528-.841c-.172-.282-.319-.58-.479-.87s-.322-.578-.462-.878l-.409-.9c-.292-.593-.485-1.231-.722-1.847-.173-.455-.277-.935-.419-1.4-.062-.236-.143-.466-.182-.707l-.144-.717-.142-.716-.086-.725-.083-.724A6.527,6.527,0,0,1,786.846,481.764Z" transform="translate(-630.937 -210.098)" fill="#fff"/>
  <path id="Path_301" data-name="Path 301" d="M859.89,266.551s4.7,13.007,7.73,21.434c.346.962,3.311.453,3.678,1.471.281.782,4.953-5.332,8.144-1.711,6.2,7.035-3.67,12.009-4.42,14.034a38.075,38.075,0,0,0-1.92,9.811,133.657,133.657,0,0,0,.017,16.205l37.356-38.4Z" transform="translate(-630.937 -210.098)" fill="#231f20"/>
  <path id="Path_302" data-name="Path 302" d="M855.382,506.072a.286.286,0,0,1-.005-.238c.17-.882.913-2.382,2.962-1.263a.943.943,0,0,1,.23.2l1.158,2.876c.191.48.39.957.572,1.44l.278.723.592,1.54c.848,2.169,1.65,4.352,2.456,6.535,6.394,17.475,11.924,35.2,17.642,52.829,1.429,4.407,2.862,8.812,4.33,13.2q1.1,3.294,2.226,6.572l.2.578.012,0,1.5-.319c.555-.12,1.114-.226,1.661-.382a91.648,91.648,0,0,0,25.134-10.389c.814-.458,1.593-.974,2.375-1.484s1.577-1,2.341-1.538c1.512-1.095,3.061-2.14,4.506-3.325a88.734,88.734,0,0,0,8.378-7.421c1.292-1.346,2.606-2.672,3.806-4.1,1.258-1.38,2.392-2.862,3.553-4.322a56.48,56.48,0,0,0,5.97-9.317l.393-.815c.027-.057.007-.017.013-.03l-.161-.61-.746-2.734q-.761-2.729-1.585-5.441t-1.712-5.4c-.519-1.752-1.319-3.466-2.014-5.214a120.856,120.856,0,0,0-10.383-19.931,122.27,122.27,0,0,0-13.87-17.69c-2.6-2.7-5.285-5.328-8.114-7.793-.688-.637-1.43-1.213-2.143-1.822s-1.428-1.216-2.177-1.78l-1.457-1.135h0l-.855.7A170.834,170.834,0,0,1,883.6,492.037c-3.294,1.982-6.641,3.882-10.073,5.631s-6.945,3.35-10.537,4.786l-2.72,1.02c-.9.349-1.837.624-2.754.938s-1.853.585-2.791.848c-.339.1-.2.057-.229.064h0v0l.348,5.549.325,5.706c.416,7.608.772,15.212,1.14,22.811s.745,15.193,1.215,22.773,1.021,15.151,1.875,22.662l.33,2.814c.063.557.091.718.131,1.011l.113.814.157,1.115c0,.011.011.005.013,0l0-.008.267-.6c.369-.841.722-1.708,1.07-2.581l2.089-5.319.554-1.345.3-.7c.193-.436.388-.866.595-1.284s.423-.818.634-1.223l.32-.606.162-.307.081-.153c.031-.038.092.044.136.06l2.307,1.519c.193.13.385.264.576.408l.463.341c.2.148.4.291.592.444.385.3.778.6,1.155.912l1.127.932.86.736.483.425,1.907,1.709s.916.956,2.109,2.267,2.672,2.966,3.881,4.345a29.622,29.622,0,0,1,2.072,2.4c.346.5.364.732.133.766-.456.067-1.927-.674-3.537-1.8a43.527,43.527,0,0,1-3.593-2.741l-3.705-3q-.906-.825-1.822-1.624l-.893-.767c-.694-.588-1.394-1.162-2.1-1.711-.177-.139-.354-.279-.535-.409l-.269-.2-.014-.011h0l-.133.307c-.355.828-.7,1.679-1.035,2.536-.678,1.717-1.338,3.459-2.048,5.209l-.547,1.316-.287.661-.374.82a15.542,15.542,0,0,1-1.292,2.327,3.512,3.512,0,0,1-1.479,1.293,2.191,2.191,0,0,1-.785.156,2.119,2.119,0,0,1-.91-.192,2.39,2.39,0,0,1-1.148-1.177l-.111-.232a1.252,1.252,0,0,1-.05-.237l-.081-.477-.162-.952-.323-1.9-.324-1.9-.079-.472-.041-.349-.082-.7-.328-2.791c-.213-1.861-.38-3.722-.572-5.583-1.347-14.887-1.99-29.769-2.721-44.631-.359-7.431-.72-14.857-1.154-22.273l-.341-5.559-.108-1.684-.089-1.394-.044-.7c-.014-.065-.012-.119.067-.119l.168-.048.335-.1,3.7-1.053a100.773,100.773,0,0,0,10.254-3.849c3.358-1.47,6.641-3.124,9.88-4.863,3.232-1.755,6.392-3.646,9.508-5.608q4.652-2.979,9.119-6.234c1.473-1.1,2.955-2.2,4.392-3.344.727-.565,1.448-1.135,2.154-1.725l1.505-1.237,1.079-.886c.178-.275.363.011.546.129l.55.429L907,476.594c.754.567,1.459,1.2,2.188,1.794,1.466,1.189,2.858,2.463,4.265,3.72,2.76,2.57,5.46,5.211,7.975,8.024a125.892,125.892,0,0,1,13.637,18.023,128.9,128.9,0,0,1,10.15,20.2c.349.883.733,1.714,1.053,2.639l.892,2.7q.863,2.673,1.668,5.366t1.545,5.4l.839,3.142c.029.112.063.226.086.337l-.133.288-.265.577-.392.831q-.315.654-.654,1.294a61.587,61.587,0,0,1-6.32,9.548l-1.768,2.229-1.87,2.144-.936,1.07-.982,1.028L936.006,569l-2.06,1.96-1.032.977c-.349.321-.714.622-1.071.934l-2.152,1.857c-.733.6-1.486,1.176-2.228,1.764-1.466,1.2-3.048,2.249-4.578,3.366-.782.535-1.586,1.037-2.377,1.557s-1.585,1.038-2.411,1.5A95.021,95.021,0,0,1,892.011,593.7c-.569.161-1.149.273-1.726.4l-1.9.4-1.692.36-.85.181c-.028-.005-.087.044-.09-.005l-.035-.1-.071-.206-.141-.411-.93-2.714q-1.14-3.3-2.236-6.6c-1.474-4.405-2.909-8.818-4.341-13.231-5.723-17.646-11.247-35.343-17.6-52.7-.8-2.167-1.6-4.336-2.437-6.484l-.587-1.527-.276-.716c-.18-.479-.377-.95-.566-1.425Z" transform="translate(-630.937 -210.098)" fill="#202020"/>
  <path id="Path_303" data-name="Path 303" d="M947.612,340.523a1.315,1.315,0,0,1,.509.622,3.987,3.987,0,0,1,.5,2.143,2.2,2.2,0,0,1-.828,1.652,2.762,2.762,0,0,1-.808.365,6.064,6.064,0,0,1-.983.137,4.837,4.837,0,0,0-2.154.525,1.785,1.785,0,0,1-.277.132,1.713,1.713,0,0,0-.866-.29,1.961,1.961,0,0,0-.463.024,1.309,1.309,0,0,0-.3.118,1.769,1.769,0,0,0-.645.713,3.017,3.017,0,0,0-.344,1.282,3.438,3.438,0,0,0,.066.856q.028.1.048.2c.024.06.045.121.064.183a3.219,3.219,0,0,0,.188.41,4.578,4.578,0,0,0,1.349,1.525,6.455,6.455,0,0,0,2.072,1.019,3.288,3.288,0,0,0,.571.118l.575.1a7.947,7.947,0,0,0,1.185,0,7.817,7.817,0,0,0,2.411-.572,8.941,8.941,0,0,0,1.166-.584,9.376,9.376,0,0,0,1.107-.737,10.383,10.383,0,0,0,1.89-1.9,9.569,9.569,0,0,0,1.327-2.275,9.132,9.132,0,0,0,.6-2.439,9.4,9.4,0,0,0-.16-2.6,11.784,11.784,0,0,0-2.32-4.948,13.642,13.642,0,0,0-4.337-3.6l-.628-.313c-.211-.1-.432-.17-.646-.26a12.463,12.463,0,0,0-1.311-.429,19.487,19.487,0,0,0-2.978-.513,14.8,14.8,0,0,0-5.744.533,12.914,12.914,0,0,0-2.611,1.112,13.061,13.061,0,0,0-2.352,1.643,18.041,18.041,0,0,0-5.724,10.245,17.312,17.312,0,0,0-.285,2.948l0,.365.021.335c.021.224.014.442.049.671a12.925,12.925,0,0,0,.243,1.389c.082.467.256.938.38,1.409.183.465.316.941.535,1.4a20.54,20.54,0,0,0,1.39,2.7l.583.886c.13.2.284.385.423.579.277.393.586.755.894,1.117s.647.689.964,1.04c.34.32.68.644,1.033.943l.279.262a9.485,9.485,0,0,0,.789.706c.174.139.359.311.572.467l.692.492a19.84,19.84,0,0,0,1.825,1.063,22.654,22.654,0,0,0,4.817,1.8,29.42,29.42,0,0,0,5.4.791c1.475.049,2.712-.005,3.726-.062s1.807-.115,2.407-.116c1.194-.033,1.619.181,1.428.608a5.6,5.6,0,0,1-2.31,1.725,20.3,20.3,0,0,1-5.154,1.658,10.131,10.131,0,0,1-2.748.37,26.156,26.156,0,0,1-7.037-.52,25.747,25.747,0,0,1-3.782-1.1c-.59-.255-1.158-.453-1.706-.739s-1.077-.527-1.519-.816a23.394,23.394,0,0,1-2.129-1.429c-.487-.377-.752-.608-.752-.608a25.373,25.373,0,0,1-2.609-2.786c-.39-.5-.767-1-1.132-1.516l-.745-1.13c-.337-.578-.691-1.146-.993-1.745a23.348,23.348,0,0,1-2.547-7.792,9.71,9.71,0,0,1-.1-1.081c-.016-.359-.058-.746-.045-1.082-.007-.694.029-1.38.078-2.064a25.392,25.392,0,0,1,.686-4.013,25.777,25.777,0,0,1,3.189-7.416,22.97,22.97,0,0,1,5.554-6.051,20.316,20.316,0,0,1,7.573-3.563,20.638,20.638,0,0,1,4.14-.553c.693-.047,1.376,0,2.063.01.677.057,1.363.1,2.028.2s1.336.2,1.983.353c.33.076.644.13.987.226l1.035.3a9.25,9.25,0,0,1,1.011.359c.331.133.668.256.992.4a20.651,20.651,0,0,1,1.883.986l.9.551.859.614.428.31.4.339.8.682a20.771,20.771,0,0,1,2.8,3.16,18.333,18.333,0,0,1,3.285,7.907,15.977,15.977,0,0,1,.042,4.457,14.485,14.485,0,0,1-.46,2.228,10.823,10.823,0,0,1-.362,1.064,9.789,9.789,0,0,1-.418,1.036,17.164,17.164,0,0,1-5.5,6.724,16.567,16.567,0,0,1-3.874,2.128,15.222,15.222,0,0,1-2.178.635c-.376.072-.744.17-1.129.21l-1.157.1a8.142,8.142,0,0,1-1.169,0,11.192,11.192,0,0,1-1.172-.079,16.219,16.219,0,0,1-2.308-.482,13.33,13.33,0,0,1-4.2-2.152,11.454,11.454,0,0,1-3.216-3.788,9.587,9.587,0,0,1-.533-1.2,10.065,10.065,0,0,1-.38-1.308,10.374,10.374,0,0,1-.207-2.646,9.9,9.9,0,0,1,1.152-4.178,8.652,8.652,0,0,1,3.217-3.39,8.1,8.1,0,0,1,2.345-.915,8.811,8.811,0,0,1,2.375-.164,8.542,8.542,0,0,1,2.294.468A8.193,8.193,0,0,1,947.612,340.523Z" transform="translate(-630.937 -210.098)" fill="#202020"/>
  <path id="Path_304" data-name="Path 304" d="M761.184,335.324c0-.005,0,0-.06-.042a.668.668,0,0,1-.254-.349,4.319,4.319,0,0,1-.15-.622,1.146,1.146,0,0,0-.12-.355.905.905,0,0,0-.281-.33,1.021,1.021,0,0,0-.575-.182,1.6,1.6,0,0,0-.914.285,1.383,1.383,0,0,0-.326.334,3.108,3.108,0,0,0-.288,1.126,3.022,3.022,0,0,0,.163,1.2,2.928,2.928,0,0,0,.639,1.036,3.193,3.193,0,0,0,.926.67,3.546,3.546,0,0,0,2.061.307,3.64,3.64,0,0,0,1.843-.87,4.418,4.418,0,0,0,1.292-2.01,4.77,4.77,0,0,0,.1-2.321,5.613,5.613,0,0,0-2.42-3.507,5.315,5.315,0,0,0-2.049-.816,5.428,5.428,0,0,0-2.19.1,6.443,6.443,0,0,0-3.433,2.239,6.554,6.554,0,0,0-1.023,1.8,5.632,5.632,0,0,0-.27.983,6.453,6.453,0,0,0-.151.96,6.959,6.959,0,0,0,.75,3.933,7.24,7.24,0,0,0,1.193,1.637c.245.223.483.46.746.657a7.555,7.555,0,0,0,.813.553,8.173,8.173,0,0,0,3.7,1.157l.426.017c.14.007.3-.009.453-.015a6.122,6.122,0,0,0,.878-.129,8.045,8.045,0,0,0,1.6-.533l.21-.118c.137-.074.33-.192.564-.349a8.2,8.2,0,0,0,1.675-1.5,6.548,6.548,0,0,0,1.366-2.609,7.677,7.677,0,0,0,.222-2.815,6.045,6.045,0,0,0-.852-2.761c-.306-.444-.5-.5-.583-.324-.173.355.034,1.668-.2,3.14-.018-.079-.056.328-.216.94a6.159,6.159,0,0,1-.365,1.016,4.987,4.987,0,0,1-.618,1.024,5.523,5.523,0,0,1-1.751,1.4,6.6,6.6,0,0,1-.689.3l-.266.089a5.047,5.047,0,0,1-.849.244,3.159,3.159,0,0,1-.82.035,5.227,5.227,0,0,1-2.363-.744,4.646,4.646,0,0,1-.512-.347c-.166-.122-.3-.27-.458-.4a4.26,4.26,0,0,1-.687-.947,3.985,3.985,0,0,1-.419-2.276,3.8,3.8,0,0,1,.1-.622,2.855,2.855,0,0,1,.149-.562,3.564,3.564,0,0,1,.56-.981,3.5,3.5,0,0,1,1.84-1.219,2.288,2.288,0,0,1,1.9.319,2.685,2.685,0,0,1,1.15,1.626,1.813,1.813,0,0,1-.03.851,1.491,1.491,0,0,1-.412.662.683.683,0,0,1-.34.174.6.6,0,0,1-.33-.044c-.091-.051-.06-.043-.064-.042s0,.009,0-.009A.151.151,0,0,1,761.184,335.324Z" transform="translate(-630.937 -210.098)" fill="#202020"/>
  <path id="Path_305" data-name="Path 305" d="M964.271,257.566s0,0,.044,0a.408.408,0,0,1,.238.1,2.692,2.692,0,0,1,.266.279.7.7,0,0,0,.17.149.533.533,0,0,0,.246.087.619.619,0,0,0,.355-.079.965.965,0,0,0,.39-.424.83.83,0,0,0,.069-.273,1.879,1.879,0,0,0-.19-.674,1.813,1.813,0,0,0-.447-.575,1.768,1.768,0,0,0-.646-.347,1.947,1.947,0,0,0-.685-.07,2.136,2.136,0,0,0-1.167.463,2.2,2.2,0,0,0-.7,1.01,2.662,2.662,0,0,0-.066,1.439,2.871,2.871,0,0,0,.646,1.241,3.384,3.384,0,0,0,2.322,1.1,3.2,3.2,0,0,0,1.314-.194,3.255,3.255,0,0,0,1.112-.712,3.872,3.872,0,0,0,1.113-2.2,3.912,3.912,0,0,0-.009-1.245,3.345,3.345,0,0,0-.156-.594,3.849,3.849,0,0,0-.212-.546,4.18,4.18,0,0,0-1.579-1.823,4.338,4.338,0,0,0-1.116-.493c-.2-.042-.391-.093-.588-.117a4.5,4.5,0,0,0-.59-.042,4.925,4.925,0,0,0-2.278.514l-.227.12c-.075.038-.155.1-.232.145a3.765,3.765,0,0,0-.418.332,4.875,4.875,0,0,0-.671.76l-.074.125c-.049.08-.114.2-.188.353a4.934,4.934,0,0,0-.42,1.288,3.969,3.969,0,0,0,.076,1.772,4.627,4.627,0,0,0,.735,1.535,3.638,3.638,0,0,0,1.279,1.181c.293.139.41.112.4-.007-.017-.237-.522-.859-.843-1.7.033.035-.07-.188-.171-.556a3.6,3.6,0,0,1-.117-.64,3.038,3.038,0,0,1,.012-.72,3.328,3.328,0,0,1,.49-1.259,4.006,4.006,0,0,1,.268-.366l.112-.127a2.99,2.99,0,0,1,.368-.383,1.9,1.9,0,0,1,.417-.266,3.151,3.151,0,0,1,1.456-.326,2.719,2.719,0,0,1,.373.026c.123.013.239.049.359.07a2.564,2.564,0,0,1,.644.286,2.4,2.4,0,0,1,.906,1.06,2.241,2.241,0,0,1,.137.354,1.783,1.783,0,0,1,.092.338,2.184,2.184,0,0,1-.586,1.872,1.38,1.38,0,0,1-1.086.407,1.62,1.62,0,0,1-1.091-.5,1.094,1.094,0,0,1-.242-.453.9.9,0,0,1,.015-.469.42.42,0,0,1,.125-.194.371.371,0,0,1,.185-.076c.063,0,.045,0,.047,0s0,0,0,.005A.113.113,0,0,1,964.271,257.566Z" transform="translate(-630.937 -210.098)" fill="#202020"/>
  <path id="Path_306" data-name="Path 306" d="M739.162,242.229c0-.011,0-.008-.089-.139a1.518,1.518,0,0,1-.231-.948,9.637,9.637,0,0,1,.223-1.428,2.6,2.6,0,0,0,.053-.845,2.033,2.033,0,0,0-.3-.931,2.307,2.307,0,0,0-1.045-.875,3.616,3.616,0,0,0-2.154-.191,3.1,3.1,0,0,0-.967.417,7.049,7.049,0,0,0-1.572,2.1,6.862,6.862,0,0,0-.69,2.643,6.635,6.635,0,0,0,.445,2.713,7.226,7.226,0,0,0,1.357,2.2,8.016,8.016,0,0,0,4.043,2.415,8.229,8.229,0,0,0,4.6-.232,10.009,10.009,0,0,0,4.429-3.089,10.786,10.786,0,0,0,2.215-4.758,12.682,12.682,0,0,0-2.04-9.409,12.005,12.005,0,0,0-3.579-3.466,12.228,12.228,0,0,0-4.656-1.682,14.543,14.543,0,0,0-9.1,1.724,14.756,14.756,0,0,0-3.68,2.871,12.6,12.6,0,0,0-1.411,1.82,14.539,14.539,0,0,0-1.14,1.877,15.686,15.686,0,0,0-1.815,8.86,16.264,16.264,0,0,0,1.083,4.445c.32.677.615,1.377.994,2.016a17.11,17.11,0,0,0,1.223,1.854,18.452,18.452,0,0,0,6.732,5.6l.874.4c.286.136.642.242.961.359a13.956,13.956,0,0,0,1.945.485,18.192,18.192,0,0,0,3.793.259l.54-.067c.35-.036.855-.116,1.478-.243a18.538,18.538,0,0,0,4.789-1.7,14.79,14.79,0,0,0,5.1-4.275,17.3,17.3,0,0,0,2.886-5.69,13.627,13.627,0,0,0,.594-6.5c-.257-1.19-.606-1.476-.938-1.177-.666.592-1.363,3.514-3.123,6.384.031-.18-.4.638-1.26,1.778a13.739,13.739,0,0,1-1.636,1.81,11.327,11.327,0,0,1-2.171,1.607,12.489,12.489,0,0,1-4.864,1.419,14.8,14.8,0,0,1-1.7.04l-.633-.043a11.266,11.266,0,0,1-1.982-.221,7.211,7.211,0,0,1-1.745-.63A11.832,11.832,0,0,1,730.7,248.2a10.42,10.42,0,0,1-.773-1.166c-.24-.4-.4-.824-.611-1.23a9.638,9.638,0,0,1-.62-2.57,8.988,8.988,0,0,1,1.082-5.115,8.35,8.35,0,0,1,.742-1.214,6.5,6.5,0,0,1,.794-1.048,8.089,8.089,0,0,1,2.013-1.566,7.907,7.907,0,0,1,4.892-.964,5.174,5.174,0,0,1,3.692,2.3,6.064,6.064,0,0,1,1,4.386,4.094,4.094,0,0,1-.794,1.752,3.37,3.37,0,0,1-1.43,1.028,1.556,1.556,0,0,1-.861.072,1.362,1.362,0,0,1-.65-.377c-.147-.185-.09-.141-.1-.143s-.007.02.009-.016A.36.36,0,0,1,739.162,242.229Z" transform="translate(-630.937 -210.098)" fill="#202020"/>
</svg>
