<?xml version="1.0"?>
<svg xmlns="http://www.w3.org/2000/svg" xmlns:xlink="http://www.w3.org/1999/xlink" xmlns:svgjs="http://svgjs.com/svgjs" version="1.1" width="512" height="512" x="0" y="0" viewBox="0 0 466 466.71221" style="enable-background:new 0 0 512 512" xml:space="preserve" class=""><g><linearGradient xmlns="http://www.w3.org/2000/svg" id="a"><stop offset="0" stop-color="#00efd1"/><stop offset="1" stop-color="#00acea"/></linearGradient><linearGradient xmlns="http://www.w3.org/2000/svg" xmlns:xlink="http://www.w3.org/1999/xlink" id="b" gradientUnits="userSpaceOnUse" x1="170.326222" x2="170.326222" xlink:href="#a" y1="23.071206" y2="440.641206"/><linearGradient xmlns="http://www.w3.org/2000/svg" xmlns:xlink="http://www.w3.org/1999/xlink" id="c" gradientUnits="userSpaceOnUse" x1="303.164222" x2="303.164222" xlink:href="#a" y1="23.071206" y2="440.641206"/><path xmlns="http://www.w3.org/2000/svg" d="m337.003906 313.816406c-2.164062-35.980468-2.976562-49.445312-5.5-89.023437-1.332031-20.925781-18.574218-36.957031-38.398437-35.742188l-.621094.039063c-8.347656.53125-16.222656 4.050781-22.1875 9.914062-2.042969-4.496094-4.933594-8.550781-8.519531-11.945312-6.824219-6.625-16.0625-10.167969-25.570313-9.808594-9.503906.359375-18.449219 4.589844-24.757812 11.707031-6.855469-11.433593-19.25-18.726562-32.878907-17.890625l-.652343.039063c-8.34375.53125-16.21875 4.050781-22.183594 9.90625l-13.75-86.675781c-.011719-.058594-.019531-.117188-.03125-.175782-3.832031-21.074218-21.167969-36.09375-40.300781-34.902344-19.40625 1.195313-33.042969 18.5-31.722656 40.25.011718.15625.023437.308594.042968.460938l19.664063 165.398438-7.753907-8.339844c-9.171874-10.082032-22.121093-15.898438-35.75-16.058594-13.34375-.082031-26.128906 5.34375-35.339843 15l-7.914063 7.433594c-2.746094 2.582031-3.320312 6.726562-1.378906 9.953125l90.898438 151.183593c15.835937 26.339844 43.183593 42.171876 72.246093 42.171876 1.636719 0 3.273438-.050782 4.917969-.148438l91.179688-5.609375c46.78125-2.875 82.390624-45.734375 79.375-95.539063-1.324219-21.914062-2.3125-38.292968-3.113282-51.597656zm-77.246094 131.167969-91.179687 5.609375c-24.90625 1.523438-48.828125-11.613281-62.46875-34.300781l-87.570313-145.644531 3.351563-3.148438c.101563-.09375.203125.007812.289063-.089844 6.132812-6.453125 14.652343-10.089844 23.550781-10.054687h.273437c9.210938.03125 17.980469 3.9375 24.167969 10.765625l24.449219 26.199218c2.378906 2.511719 6.101562 3.21875 9.234375 1.75 3.132812-1.46875 4.976562-4.78125 4.566406-8.214843l-22.527344-189.523438c-.789062-14.4375 7.804688-22.550781 16.753907-23.101562 11.058593-.683594 21.136718 8.648437 23.546874 21.710937l17.9375 113.054688c.011719.460937.03125.917968.0625 1.378906.050782.847656.234376 1.679688.546876 2.464844l7.601562 47.9375c.757812 4.300781 4.820312 7.199218 9.132812 6.515625 4.308594-.683594 7.277344-4.699219 6.667969-9.019531l-8.035156-50.625c.113281-11.417969 8.238281-20.921876 18.785156-21.570313l.65625-.042969c11.046875-.683594 20.699219 8.675782 21.449219 20.855469l2.765625 44.945313c.269531 4.410156 4.0625 7.765624 8.472656 7.496093 4.414063-.269531 7.769531-4.066406 7.496094-8.476562l-2.15625-35.179688c0-.027343 0-.054687 0-.085937-.75-12.179688 7.65625-22.644532 18.800781-23.328125 5.347656-.292969 10.570313 1.667969 14.398438 5.410156 4.226562 4.066406 6.75 9.585937 7.050781 15.445313l.925781 15.046874.011719.207032c0 .027344 0 .058594.003906.089844l1.101563 17.925781c.269531 4.410156 4.066406 7.765625 8.476562 7.492187 4.410156-.269531 7.765625-4.066406 7.496094-8.476562l-1.121094-18.167969c-.667968-12.117187 7.710938-22.496094 18.746094-23.175781l.621094-.035156c11.035156-.683594 20.671875 8.644531 21.449218 20.789062 2.523438 39.546875 3.332032 53 5.5 88.964844.796876 13.308594 1.785157 29.6875 3.109376 51.605468 2.480468 41.003907-26.402344 76.265626-64.390626 78.601563zm0 0" fill="url(#b)" data-original="url(#b)" style=""/><g xmlns="http://www.w3.org/2000/svg" fill="url(#c)"><path d="m402.277344 27.355469h-178.121094l13.699219-13.699219c3.125-3.125 3.125-8.1875 0-11.3125s-8.1875-3.125-11.3125 0l-28.152344 28.148438c-3.121094 3.125-3.121094 8.191406 0 11.3125l28.152344 28.152343c3.128906 3.089844 8.167969 3.074219 11.277343-.035156 3.113282-3.109375 3.128907-8.148437.035157-11.277344l-15.289063-15.289062h179.710938c4.421875 0 8-3.578125 8-8 0-4.417969-3.578125-8-8-8zm0 0" fill=""/><path d="m402.277344 117.355469h-178.121094l13.699219-13.699219c3.125-3.125 3.125-8.1875 0-11.3125s-8.1875-3.125-11.3125 0l-28.152344 28.148438c-3.121094 3.125-3.121094 8.191406 0 11.3125l28.152344 28.152343c3.128906 3.089844 8.167969 3.074219 11.277343-.035156 3.113282-3.109375 3.128907-8.148437.035157-11.277344l-15.289063-15.289062h179.710938c4.421875 0 8-3.578125 8-8 0-4.417969-3.578125-8-8-8zm0 0" fill=""/></g></g></svg>
