<svg height="466pt" viewBox="-28 0 466 466.67716" width="466pt" xmlns="http://www.w3.org/2000/svg" xmlns:xlink="http://www.w3.org/1999/xlink"><linearGradient id="a"><stop offset="0" stop-color="#00efd1"/><stop offset="1" stop-color="#00acea"/></linearGradient><linearGradient id="b" gradientUnits="userSpaceOnUse" x1="170.308591" x2="170.308591" xlink:href="#a" y1="23.036156" y2="440.606156"/><linearGradient id="c" gradientUnits="userSpaceOnUse" x1="302.876591" x2="302.876591" xlink:href="#a" y1="23.036156" y2="440.606156"/><path d="m336.972656 313.542969c-2.160156-35.871094-2.96875-49.292969-5.488281-88.785157-1.335937-20.925781-18.574219-36.949218-38.398437-35.742187l-.625.039063c-8.34375.53125-16.21875 4.050781-22.183594 9.914062-2.042969-4.496094-4.933594-8.550781-8.515625-11.945312-6.832031-6.621094-16.070313-10.164063-25.574219-9.804688-9.503906.355469-18.449219 4.578125-24.765625 11.6875-6.859375-11.421875-19.246094-18.707031-32.871094-17.871094l-.652343.039063c-8.34375.53125-16.214844 4.046875-22.179688 9.90625l-13.753906-86.679688c-.007813-.058593-.019532-.117187-.027344-.175781-3.832031-21.074219-21.175781-36.082031-40.296875-34.898438-19.40625 1.191407-33.046875 18.5-31.722656 40.25.007812.152344.023437.304688.042969.457032l19.664062 165.402344-7.757812-8.339844c-9.167969-10.085938-22.117188-15.902344-35.742188-16.0625-13.347656-.089844-26.136719 5.335937-35.34375 15l-7.917969 7.4375c-2.746093 2.578125-3.320312 6.722656-1.382812 9.949218l90.902343 151.183594c15.832032 26.339844 43.179688 42.171875 72.246094 42.171875 1.632813 0 3.269532-.050781 4.917969-.148437l91.175781-5.609375c46.785156-2.875 82.390625-45.734375 79.375-95.539063-1.332031-22.042968-2.320312-38.488281-3.125-51.835937zm-77.230468 131.40625-91.179688 5.609375c-24.890625 1.523437-48.828125-11.613282-62.46875-34.300782l-87.570312-145.644531 3.351562-3.148437c.097656-.09375.199219.007812.289062-.089844 6.128907-6.453125 14.648438-10.089844 23.546876-10.054688h.277343c9.207031.03125 17.980469 3.9375 24.164063 10.765626l24.453125 26.199218c2.378906 2.511719 6.101562 3.21875 9.234375 1.75 3.132812-1.46875 4.972656-4.777344 4.566406-8.214844l-22.53125-189.523437c-.785156-14.4375 7.800781-22.550781 16.753906-23.101563 11.027344-.683593 21.140625 8.648438 23.550782 21.710938l17.933593 113.050781c.015625.460938.035157.921875.0625 1.382813.050781.847656.238281 1.679687.550781 2.46875l7.605469 47.9375c.757813 4.296875 4.820313 7.195312 9.132813 6.511718 4.308594-.683593 7.277344-4.699218 6.667968-9.019531l-8.035156-50.628906c.117188-11.414063 8.238282-20.921875 18.785156-21.566406l.65625-.042969c11.054688-.683594 20.699219 8.675781 21.449219 20.855469l2.761719 44.945312c.273438 4.410157 4.066406 7.765625 8.476562 7.496094 4.410157-.269531 7.765626-4.066406 7.496094-8.476563l-2.164062-35.179687c0-.027344 0-.054687 0-.085937-.417969-5.847657 1.40625-11.636719 5.101562-16.191407 3.332032-4.214843 8.300782-6.8125 13.664063-7.140625 5.359375-.328125 10.609375 1.636719 14.433593 5.414063 4.226563 4.066406 6.746094 9.585937 7.046876 15.445312l.929687 15.0625c0 .0625.003906.125.007813.1875l.007812.085938 1.097656 17.929687c.273438 4.410156 4.066406 7.765625 8.476563 7.496094 4.414062-.269531 7.765625-4.066406 7.496093-8.476562l-1.117187-18.175782c-.667969-12.113281 7.710937-22.488281 18.746094-23.167968l.621093-.039063c11.027344-.675781 20.671876 8.648437 21.445313 20.792969 2.519531 39.460937 3.324219 52.875 5.484375 88.726562.800781 13.351563 1.792969 29.792969 3.128906 51.84375 2.484375 41.003906-26.398437 76.265625-64.386718 78.601563zm0 0" fill="url(#b)"/><g fill="url(#c)"><path d="m379.230469 92.308594c-3.128907-3.089844-8.167969-3.078125-11.277344.035156-3.113281 3.109375-3.128906 8.148438-.035156 11.277344l15.699219 15.699218h-179.585938c-4.417969 0-8 3.582032-8 8 0 4.421876 3.582031 8 8 8h177.171875l-13.285156 13.289063c-3.09375 3.128906-3.078125 8.167969.035156 11.277344 3.109375 3.113281 8.148437 3.128906 11.277344.035156l28.148437-28.148437c3.125-3.125 3.125-8.191407 0-11.3125zm0 0"/><path d="m379.230469 2.308594c-3.128907-3.089844-8.167969-3.078125-11.277344.035156-3.113281 3.109375-3.128906 8.148438-.035156 11.277344l15.699219 15.699218h-179.585938c-4.417969 0-8 3.582032-8 8 0 4.421876 3.582031 8 8 8h177.171875l-13.285156 13.289063c-3.09375 3.128906-3.078125 8.167969.035156 11.277344 3.109375 3.113281 8.148437 3.128906 11.277344.035156l28.148437-28.148437c3.125-3.125 3.125-8.191407 0-11.3125zm0 0"/></g></svg>